<?xml version="1.0" encoding="UTF-8" standalone="no"?>
<!-- Created with Inkscape (http://www.inkscape.org/) -->

<svg
   xmlns:dc="http://purl.org/dc/elements/1.1/"
   xmlns:cc="http://creativecommons.org/ns#"
   xmlns:rdf="http://www.w3.org/1999/02/22-rdf-syntax-ns#"
   xmlns:svg="http://www.w3.org/2000/svg"
   xmlns="http://www.w3.org/2000/svg"
   xmlns:sodipodi="http://sodipodi.sourceforge.net/DTD/sodipodi-0.dtd"
   xmlns:inkscape="http://www.inkscape.org/namespaces/inkscape"
   width="55mm"
   height="55mm"
   viewBox="0 0 194.88189 194.8819"
   id="svg2"
   version="1.1"
   inkscape:version="0.91 r13725"
   sodipodi:docname="icon.svg"
   style="enable-background:new"
   inkscape:export-filename="/home/heye/Desktop/icon.png"
   inkscape:export-xdpi="88.669998"
   inkscape:export-ydpi="88.669998"
   enable-background="new">
  <defs
     id="defs4">
    <filter
       style="color-interpolation-filters:sRGB"
       inkscape:label="Invert"
       id="filter4503">
      <feColorMatrix
         type="hueRotate"
         values="180"
         result="color1"
         id="feColorMatrix4505" />
      <feColorMatrix
         values="-1 0 0 0 1 0 -1 0 0 1 0 0 -1 0 1 -0.21 -0.72 -0.07 2 0 "
         result="color2"
         id="feColorMatrix4507" />
    </filter>
    <filter
       inkscape:collect="always"
       style="color-interpolation-filters:sRGB"
       id="filter4509">
      <feBlend
         inkscape:collect="always"
         mode="lighten"
         in2="BackgroundImage"
         id="feBlend4511" />
    </filter>
    <filter
       inkscape:collect="always"
       style="color-interpolation-filters:sRGB"
       id="filter4559">
      <feBlend
         inkscape:collect="always"
         mode="darken"
         in2="BackgroundImage"
         id="feBlend4561" />
    </filter>
    <filter
       inkscape:collect="always"
       style="color-interpolation-filters:sRGB"
       id="filter4620">
      <feBlend
         inkscape:collect="always"
         mode="screen"
         in2="BackgroundImage"
         id="feBlend4622" />
    </filter>
    <filter
       style="color-interpolation-filters:sRGB"
       inkscape:label="Blur"
       id="filter4710">
      <feGaussianBlur
         stdDeviation="2 2"
         result="blur"
         id="feGaussianBlur4712" />
    </filter>
    <filter
       inkscape:collect="always"
       style="color-interpolation-filters:sRGB"
       id="filter4820">
      <feBlend
         inkscape:collect="always"
         mode="screen"
         in2="BackgroundImage"
         id="feBlend4822" />
    </filter>
    <filter
       style="color-interpolation-filters:sRGB;"
       inkscape:label="Blur"
       id="filter5008">
      <feGaussianBlur
         stdDeviation="2 2"
         result="blur"
         id="feGaussianBlur5010" />
    </filter>
    <mask
       maskUnits="userSpaceOnUse"
       id="mask5032">
      <path
         id="path5034"
         style="color:#000000;font-style:normal;font-variant:normal;font-weight:normal;font-stretch:normal;font-size:175px;line-height:125%;font-family:sans-serif;text-indent:0;text-align:start;text-decoration:none;text-decoration-line:none;text-decoration-style:solid;text-decoration-color:#000000;letter-spacing:0px;word-spacing:0px;text-transform:none;direction:ltr;block-progression:tb;writing-mode:lr-tb;baseline-shift:baseline;text-anchor:start;white-space:normal;clip-rule:nonzero;display:inline;overflow:visible;visibility:visible;opacity:1;isolation:auto;mix-blend-mode:normal;color-interpolation:sRGB;color-interpolation-filters:linearRGB;solid-color:#000000;solid-opacity:1;fill:#ffffff;fill-opacity:0.48101268;fill-rule:nonzero;stroke:none;stroke-width:15;stroke-linecap:butt;stroke-linejoin:miter;stroke-miterlimit:4;stroke-dasharray:none;stroke-dashoffset:0;stroke-opacity:1;filter:url(#filter5008);color-rendering:auto;image-rendering:auto;shape-rendering:auto;text-rendering:auto;enable-background:accumulate"
         d="m 253.5602,280.94702 c -12.54837,0 -22.63102,2.1539 -29.33203,9.00391 l -0.0156,0.0176 -0.0176,0.0176 c -6.68099,6.91601 -8.70704,17.10789 -8.70703,29.99023 l 0,13.9707 0,13.97071 c 0,12.88232 2.02603,23.07422 8.70703,29.99023 l 0.0176,0.0156 0.0156,0.0176 c 6.70101,6.85001 16.78366,9.00586 29.33203,9.00586 l 4.625,0 6.75,0 27.4336,0 0,21.96289 0,10.16602 0,6.68359 c 0,12.88232 2.02604,23.07422 8.70703,29.99024 l 0.0176,0.0176 0.0156,0.0156 c 6.70101,6.85002 16.78365,9.00586 29.33203,9.00586 l 15.40821,0 15.41015,0 c 12.54838,0 22.62908,-2.15584 29.33008,-9.00586 l 0.0156,-0.0156 0.0176,-0.0176 c 6.68099,-6.91601 8.70705,-17.10791 8.70704,-29.99024 l 0,-13.9707 0,-13.9707 c 0,-12.88232 -2.02603,-23.07422 -8.70704,-29.99024 l -0.0176,-0.0156 -0.0156,-0.0176 c -6.701,-6.85002 -16.7817,-9.00586 -29.33008,-9.00586 l -4.62695,0 -6.75,0 -27.43359,0 0,-21.96289 0,-10.16602 0,-6.68359 c 0,-12.88233 -2.02603,-23.07422 -8.70704,-29.99023 l -0.0176,-0.0176 -0.0156,-0.0176 c -6.701,-6.85002 -16.78364,-9.00391 -29.33203,-9.00391 l -15.4082,0 -15.40821,0 z m -18.20703,19.21289 c -0.9032,1.0325 -1.56269,2.10856 -2.15429,3.20313 0.57672,-1.2844 1.17721,-2.31636 1.77343,-2.9375 0.0876,-0.0888 0.28022,-0.17631 0.38086,-0.26563 z m 67.23047,0 c 0.10064,0.0893 0.29324,0.17678 0.38086,0.26563 0.597,0.62195 1.19997,1.6564 1.77734,2.94336 -0.59217,-1.0967 -1.25335,-2.17461 -2.1582,-3.20899 z m -49.02344,8.94532 15.40821,0 15.4082,0 c 4.76217,-1e-5 6.61224,0.99747 6.69336,0.8789 0.0401,0.69732 1.29883,4.26431 1.29883,9.99219 l 0,13.9707 0,2.87891 0,7.5 0,14.46289 -27.4336,0 -6.75,0 -4.625,0 c -4.76219,0 -6.61221,-0.9994 -6.69336,-0.88086 -0.0427,-0.70285 -1.29882,-4.26852 -1.29882,-9.99023 l 0,-13.97071 0,-13.9707 c 0,-5.72789 1.25874,-9.29487 1.29882,-9.99219 0.0811,0.11855 1.93119,-0.87891 6.69336,-0.8789 z m -22.96679,8.92187 c -0.003,0.66391 -0.0254,1.25535 -0.0254,1.94922 l 0,13.9707 0,13.97071 c 0,0.69409 0.0225,1.2851 0.0254,1.94922 -0.0198,-0.68593 -0.10547,-1.22262 -0.10547,-1.94922 l 0,-13.97071 0,-13.9707 c 0,-0.72641 0.0857,-1.26346 0.10547,-1.94922 z m 76.75,0 c 0.0198,0.68576 0.10547,1.22281 0.10547,1.94922 l 0,6.68359 0,10.16602 -0.0801,0 0,-2.87891 0,-13.9707 c 0,-0.69387 -0.0225,-1.28531 -0.0254,-1.94922 z m 0.0254,33.79883 0.0801,0 0,20.12109 0,1.8418 0,5.6582 0,14.46289 -0.0801,0 0,-20.12109 0,-1.8418 0,-5.6582 0,-14.46289 z m -74.16992,12.70508 c 0.59094,1.09334 1.25054,2.16782 2.15234,3.19922 -0.10052,-0.0893 -0.29335,-0.17682 -0.38086,-0.26563 -0.59545,-0.62114 -1.19555,-1.65099 -1.77148,-2.93359 z m 146.26562,13.4707 c 0.10064,0.0893 0.29324,0.17678 0.38086,0.26563 0.597,0.62194 1.19997,1.6564 1.77734,2.94336 -0.59217,-1.09671 -1.25335,-2.17461 -2.1582,-3.20899 z m -57.01562,8.94531 27.43359,0 6.75,0 4.62695,0 c 4.76607,0 6.61563,1.0016 6.69336,0.88086 0.0427,0.70285 1.29688,4.26852 1.29688,9.99024 l 0,13.9707 0,13.9707 c 0,5.7279 -1.2568,9.29488 -1.29688,9.99219 -0.0777,-0.12075 -1.9273,0.87892 -6.69336,0.87891 l -15.41015,0 -15.40821,0 c -4.76519,10e-6 -6.61489,-0.99919 -6.69336,-0.87891 -0.0401,-0.69731 -1.29882,-4.26429 -1.29882,-9.99219 l 0,-13.9707 0,-2.87891 0,-21.96289 z m 61.77343,8.91016 c 0.02,0.68984 0.10743,1.22993 0.10743,1.96094 l 0,13.9707 0,13.9707 c 0,0.73154 -0.0874,1.27258 -0.10743,1.96289 0.003,-0.66836 0.0274,-1.26414 0.0274,-1.96289 l 0,-13.9707 0,-13.9707 c 0,-0.69828 -0.0244,-1.293 -0.0274,-1.96094 z m -76.85351,13.05273 0.0801,0 0,2.87891 0,13.9707 c 0,0.69387 0.0225,1.28531 0.0254,1.94922 -0.0198,-0.68576 -0.10547,-1.22281 -0.10547,-1.94922 l 0,-6.68359 0,-10.16602 z m 74.2539,33.45704 c -0.57737,1.28695 -1.18034,2.3214 -1.77734,2.94335 -0.0876,0.0889 -0.28022,0.17632 -0.38086,0.26563 0.90486,-1.03438 1.56603,-2.11228 2.1582,-3.20898 z m -71.54296,0.006 c 0.5916,1.09458 1.25109,2.17064 2.15429,3.20313 -0.10064,-0.0893 -0.29324,-0.17677 -0.38086,-0.26563 -0.59622,-0.62114 -1.19671,-1.65309 -1.77343,-2.9375 z"
         inkscape:connector-curvature="0"
         transform="matrix(1.1819476,0,0,1.1819476,-216.39917,-294.47742)" />
    </mask>
    <filter
       inkscape:collect="always"
       style="color-interpolation-filters:sRGB"
       id="filter5036">
      <feBlend
         inkscape:collect="always"
         mode="screen"
         in2="BackgroundImage"
         id="feBlend5038" />
    </filter>
  </defs>
  <sodipodi:namedview
     id="base"
     pagecolor="#ffffff"
     bordercolor="#666666"
     borderopacity="1.0"
     inkscape:pageopacity="0.0"
     inkscape:pageshadow="2"
     inkscape:zoom="2"
     inkscape:cx="-30.298614"
     inkscape:cy="81.420763"
     inkscape:document-units="px"
     inkscape:current-layer="layer4"
     showgrid="false"
     showborder="true"
     inkscape:snap-bbox="false"
     inkscape:bbox-paths="false"
     inkscape:bbox-nodes="false"
     inkscape:snap-bbox-edge-midpoints="false"
     inkscape:snap-bbox-midpoints="false"
     inkscape:window-width="1920"
     inkscape:window-height="1029"
     inkscape:window-x="0"
     inkscape:window-y="25"
     inkscape:window-maximized="1"
     borderlayer="false"
     fit-margin-top="2"
     fit-margin-left="2"
     fit-margin-right="2"
     fit-margin-bottom="2" />
  <metadata
     id="metadata7">
    <rdf:RDF>
      <cc:Work
         rdf:about="">
        <dc:format>image/svg+xml</dc:format>
        <dc:type
           rdf:resource="http://purl.org/dc/dcmitype/StillImage" />
        <dc:title></dc:title>
      </cc:Work>
    </rdf:RDF>
  </metadata>
  <g
     inkscape:groupmode="layer"
     id="layer10"
     inkscape:label="Bottom"
     style="display:none">
    <rect
       style="display:inline;opacity:1;fill:#000000;fill-opacity:1;stroke:#000000;stroke-width:12.35086918;stroke-linecap:butt;stroke-linejoin:round;stroke-miterlimit:4;stroke-dasharray:none;stroke-opacity:0.39263802;filter:url(#filter4620);enable-background:new"
       id="rect4780"
       width="298.75531"
       height="259.86444"
       x="168.9915"
       y="233.97546"
       transform="translate(-208.41404,-276.50601)" />
  </g>
  <g
     inkscape:groupmode="layer"
     id="layer6"
     inkscape:label="QR Code Black"
     style="display:none;opacity:0.09961685;filter:url(#filter4559)"
     transform="translate(-208.41404,-276.50601)">
    <g
       id="elements-1-9"
       transform="matrix(0.51372099,0,0,0.51372099,214.72997,278.51465)"
       style="display:inline;opacity:1;filter:url(#filter4509)"
       inkscape:export-xdpi="90"
       inkscape:export-ydpi="90">
      <path
         inkscape:connector-curvature="0"
         style="fill:#000000"
         d="m 0,0 10,0 0,10 -10,0 z m 10,0 10,0 0,10 -10,0 z m 10,0 10,0 0,10 -10,0 z m 10,0 10,0 0,10 -10,0 z m 10,0 10,0 0,10 -10,0 z m 10,0 10,0 0,10 -10,0 z m 10,0 10,0 0,10 -10,0 z m 20,0 10,0 0,10 -10,0 z m 10,0 10,0 0,10 -10,0 z m 10,0 10,0 0,10 -10,0 z m 30,0 10,0 0,10 -10,0 z m 50,0 10,0 0,10 -10,0 z m 10,0 10,0 0,10 -10,0 z m 10,0 10,0 0,10 -10,0 z m 10,0 10,0 0,10 -10,0 z m 10,0 10,0 0,10 -10,0 z m 10,0 10,0 0,10 -10,0 z m 10,0 10,0 0,10 -10,0 z M 0,10 10,10 10,20 0,20 Z m 60,0 10,0 0,10 -10,0 z m 20,0 10,0 0,10 -10,0 z m 10,0 10,0 0,10 -10,0 z m 20,0 10,0 0,10 -10,0 z m 10,0 10,0 0,10 -10,0 z m 10,0 10,0 0,10 -10,0 z m 30,0 10,0 0,10 -10,0 z m 20,0 10,0 0,10 -10,0 z m 60,0 10,0 0,10 -10,0 z M 0,20 10,20 10,30 0,30 Z m 20,0 10,0 0,10 -10,0 z m 10,0 10,0 0,10 -10,0 z m 10,0 10,0 0,10 -10,0 z m 20,0 10,0 0,10 -10,0 z m 20,0 10,0 0,10 -10,0 z m 20,0 10,0 0,10 -10,0 z m 10,0 10,0 0,10 -10,0 z m 50,0 10,0 0,10 -10,0 z m 20,0 10,0 0,10 -10,0 z m 20,0 10,0 0,10 -10,0 z m 10,0 10,0 0,10 -10,0 z m 10,0 10,0 0,10 -10,0 z m 20,0 10,0 0,10 -10,0 z M 0,30 10,30 10,40 0,40 Z m 20,0 10,0 0,10 -10,0 z m 10,0 10,0 0,10 -10,0 z m 10,0 10,0 0,10 -10,0 z m 20,0 10,0 0,10 -10,0 z m 50,0 10,0 0,10 -10,0 z m 10,0 10,0 0,10 -10,0 z m 10,0 10,0 0,10 -10,0 z m 10,0 10,0 0,10 -10,0 z m 10,0 10,0 0,10 -10,0 z m 10,0 10,0 0,10 -10,0 z m 20,0 10,0 0,10 -10,0 z m 20,0 10,0 0,10 -10,0 z m 10,0 10,0 0,10 -10,0 z m 10,0 10,0 0,10 -10,0 z m 20,0 10,0 0,10 -10,0 z M 0,40 10,40 10,50 0,50 Z m 20,0 10,0 0,10 -10,0 z m 10,0 10,0 0,10 -10,0 z m 10,0 10,0 0,10 -10,0 z m 20,0 10,0 0,10 -10,0 z m 70,0 10,0 0,10 -10,0 z m 50,0 10,0 0,10 -10,0 z m 20,0 10,0 0,10 -10,0 z m 10,0 10,0 0,10 -10,0 z m 10,0 10,0 0,10 -10,0 z m 20,0 10,0 0,10 -10,0 z M 0,50 10,50 10,60 0,60 Z m 60,0 10,0 0,10 -10,0 z m 20,0 10,0 0,10 -10,0 z m 10,0 10,0 0,10 -10,0 z m 30,0 10,0 0,10 -10,0 z m 20,0 10,0 0,10 -10,0 z m 10,0 10,0 0,10 -10,0 z m 10,0 10,0 0,10 -10,0 z m 20,0 10,0 0,10 -10,0 z m 60,0 10,0 0,10 -10,0 z M 0,60 10,60 10,70 0,70 Z m 10,0 10,0 0,10 -10,0 z m 10,0 10,0 0,10 -10,0 z m 10,0 10,0 0,10 -10,0 z m 10,0 10,0 0,10 -10,0 z m 10,0 10,0 0,10 -10,0 z m 10,0 10,0 0,10 -10,0 z m 20,0 10,0 0,10 -10,0 z m 20,0 10,0 0,10 -10,0 z m 20,0 10,0 0,10 -10,0 z m 20,0 10,0 0,10 -10,0 z m 20,0 10,0 0,10 -10,0 z m 20,0 10,0 0,10 -10,0 z m 10,0 10,0 0,10 -10,0 z m 10,0 10,0 0,10 -10,0 z m 10,0 10,0 0,10 -10,0 z m 10,0 10,0 0,10 -10,0 z m 10,0 10,0 0,10 -10,0 z m 10,0 10,0 0,10 -10,0 z m -160,10 10,0 0,10 -10,0 z m 30,0 10,0 0,10 -10,0 z m 40,0 10,0 0,10 -10,0 z m -130,10 10,0 0,10 -10,0 z m 10,0 10,0 0,10 -10,0 z m 10,0 10,0 0,10 -10,0 z m 20,0 10,0 0,10 -10,0 z m 20,0 10,0 0,10 -10,0 z m 20,0 10,0 0,10 -10,0 z m 20,0 10,0 0,10 -10,0 z m 30,0 10,0 0,10 -10,0 z m 20,0 10,0 0,10 -10,0 z m 10,0 10,0 0,10 -10,0 z m 10,0 10,0 0,10 -10,0 z m 30,0 10,0 0,10 -10,0 z m 10,0 10,0 0,10 -10,0 z m 10,0 10,0 0,10 -10,0 z m -230,10 10,0 0,10 -10,0 z m 60,0 10,0 0,10 -10,0 z m 10,0 10,0 0,10 -10,0 z m 20,0 10,0 0,10 -10,0 z m 80,0 10,0 0,10 -10,0 z m 40,0 10,0 0,10 -10,0 z m -210,10 10,0 0,10 -10,0 z m 40,0 10,0 0,10 -10,0 z m 10,0 10,0 0,10 -10,0 z m 40,0 10,0 0,10 -10,0 z m 10,0 10,0 0,10 -10,0 z m 30,0 10,0 0,10 -10,0 z m 10,0 10,0 0,10 -10,0 z m 10,0 10,0 0,10 -10,0 z m 10,0 10,0 0,10 -10,0 z m 20,0 10,0 0,10 -10,0 z m 20,0 10,0 0,10 -10,0 z m 20,0 10,0 0,10 -10,0 z m 10,0 10,0 0,10 -10,0 z m -240,10 10,0 0,10 -10,0 z m 10,0 10,0 0,10 -10,0 z m 10,0 10,0 0,10 -10,0 z m 70,0 10,0 0,10 -10,0 z m 30,0 10,0 0,10 -10,0 z m 10,0 10,0 0,10 -10,0 z m 30,0 10,0 0,10 -10,0 z m 40,0 10,0 0,10 -10,0 z m 30,0 10,0 0,10 -10,0 z m 10,0 10,0 0,10 -10,0 z m -240,10 10,0 0,10 -10,0 z m 10,0 10,0 0,10 -10,0 z m 20,0 10,0 0,10 -10,0 z m 30,0 10,0 0,10 -10,0 z m 20,0 10,0 0,10 -10,0 z m 10,0 10,0 0,10 -10,0 z m 30,0 10,0 0,10 -10,0 z m 50,0 10,0 0,10 -10,0 z m 20,0 10,0 0,10 -10,0 z m 10,0 10,0 0,10 -10,0 z m 10,0 10,0 0,10 -10,0 z m 10,0 10,0 0,10 -10,0 z m 10,0 10,0 0,10 -10,0 z m 10,0 10,0 0,10 -10,0 z m -240,10 10,0 0,10 -10,0 z m 20,0 10,0 0,10 -10,0 z m 10,0 10,0 0,10 -10,0 z m 20,0 10,0 0,10 -10,0 z m 30,0 10,0 0,10 -10,0 z m 20,0 10,0 0,10 -10,0 z m 20,0 10,0 0,10 -10,0 z m 30,0 10,0 0,10 -10,0 z m 10,0 10,0 0,10 -10,0 z m 20,0 10,0 0,10 -10,0 z m 10,0 10,0 0,10 -10,0 z m -190,10 10,0 0,10 -10,0 z m 20,0 10,0 0,10 -10,0 z m 10,0 10,0 0,10 -10,0 z m 20,0 10,0 0,10 -10,0 z m 10,0 10,0 0,10 -10,0 z m 60,0 10,0 0,10 -10,0 z m 10,0 10,0 0,10 -10,0 z m 50,0 10,0 0,10 -10,0 z m 50,0 10,0 0,10 -10,0 z m 10,0 10,0 0,10 -10,0 z m -240,10 10,0 0,10 -10,0 z m 20,0 10,0 0,10 -10,0 z m 10,0 10,0 0,10 -10,0 z m 10,0 10,0 0,10 -10,0 z m 30,0 10,0 0,10 -10,0 z m 10,0 10,0 0,10 -10,0 z m 10,0 10,0 0,10 -10,0 z m 10,0 10,0 0,10 -10,0 z m 60,0 10,0 0,10 -10,0 z m 10,0 10,0 0,10 -10,0 z m 10,0 10,0 0,10 -10,0 z m 20,0 10,0 0,10 -10,0 z m 40,0 10,0 0,10 -10,0 z m -240,10 10,0 0,10 -10,0 z m 60,0 10,0 0,10 -10,0 z m 20,0 10,0 0,10 -10,0 z m 20,0 10,0 0,10 -10,0 z m 10,0 10,0 0,10 -10,0 z m 50,0 10,0 0,10 -10,0 z m 10,0 10,0 0,10 -10,0 z m 10,0 10,0 0,10 -10,0 z m 10,0 10,0 0,10 -10,0 z m 10,0 10,0 0,10 -10,0 z m 20,0 10,0 0,10 -10,0 z m 10,0 10,0 0,10 -10,0 z m 10,0 10,0 0,10 -10,0 z m -160,10 10,0 0,10 -10,0 z m 50,0 10,0 0,10 -10,0 z m 30,0 10,0 0,10 -10,0 z m 40,0 10,0 0,10 -10,0 z m 10,0 10,0 0,10 -10,0 z m 20,0 10,0 0,10 -10,0 z m -230,10 10,0 0,10 -10,0 z m 10,0 10,0 0,10 -10,0 z m 10,0 10,0 0,10 -10,0 z m 10,0 10,0 0,10 -10,0 z m 10,0 10,0 0,10 -10,0 z m 10,0 10,0 0,10 -10,0 z m 10,0 10,0 0,10 -10,0 z m 40,0 10,0 0,10 -10,0 z m 10,0 10,0 0,10 -10,0 z m 20,0 10,0 0,10 -10,0 z m 10,0 10,0 0,10 -10,0 z m 10,0 10,0 0,10 -10,0 z m 10,0 10,0 0,10 -10,0 z m 20,0 10,0 0,10 -10,0 z m 20,0 10,0 0,10 -10,0 z m 10,0 10,0 0,10 -10,0 z m 20,0 10,0 0,10 -10,0 z m 10,0 10,0 0,10 -10,0 z m -240,10 10,0 0,10 -10,0 z m 60,0 10,0 0,10 -10,0 z m 40,0 10,0 0,10 -10,0 z m 50,0 10,0 0,10 -10,0 z m 10,0 10,0 0,10 -10,0 z m 40,0 10,0 0,10 -10,0 z m 30,0 10,0 0,10 -10,0 z m 10,0 10,0 0,10 -10,0 z m -240,10 10,0 0,10 -10,0 z m 20,0 10,0 0,10 -10,0 z m 10,0 10,0 0,10 -10,0 z m 10,0 10,0 0,10 -10,0 z m 20,0 10,0 0,10 -10,0 z m 20,0 10,0 0,10 -10,0 z m 10,0 10,0 0,10 -10,0 z m 30,0 10,0 0,10 -10,0 z m 10,0 10,0 0,10 -10,0 z m 20,0 10,0 0,10 -10,0 z m 10,0 10,0 0,10 -10,0 z m 10,0 10,0 0,10 -10,0 z m 10,0 10,0 0,10 -10,0 z m 10,0 10,0 0,10 -10,0 z m 10,0 10,0 0,10 -10,0 z m 10,0 10,0 0,10 -10,0 z m 10,0 10,0 0,10 -10,0 z m -220,10 10,0 0,10 -10,0 z m 20,0 10,0 0,10 -10,0 z m 10,0 10,0 0,10 -10,0 z m 10,0 10,0 0,10 -10,0 z m 20,0 10,0 0,10 -10,0 z m 20,0 10,0 0,10 -10,0 z m 50,0 10,0 0,10 -10,0 z m 50,0 10,0 0,10 -10,0 z m 20,0 10,0 0,10 -10,0 z m 10,0 10,0 0,10 -10,0 z m 30,0 10,0 0,10 -10,0 z m -240,10 10,0 0,10 -10,0 z m 20,0 10,0 0,10 -10,0 z m 10,0 10,0 0,10 -10,0 z m 10,0 10,0 0,10 -10,0 z m 20,0 10,0 0,10 -10,0 z m 20,0 10,0 0,10 -10,0 z m 10,0 10,0 0,10 -10,0 z m 30,0 10,0 0,10 -10,0 z m 30,0 10,0 0,10 -10,0 z m 20,0 10,0 0,10 -10,0 z m 10,0 10,0 0,10 -10,0 z m 10,0 10,0 0,10 -10,0 z m 50,0 10,0 0,10 -10,0 z m -240,10 10,0 0,10 -10,0 z m 60,0 10,0 0,10 -10,0 z m 50,0 10,0 0,10 -10,0 z m 30,0 10,0 0,10 -10,0 z m 10,0 10,0 0,10 -10,0 z m 20,0 10,0 0,10 -10,0 z m 70,0 10,0 0,10 -10,0 z m -240,10 10,0 0,10 -10,0 z m 10,0 10,0 0,10 -10,0 z m 10,0 10,0 0,10 -10,0 z m 10,0 10,0 0,10 -10,0 z m 10,0 10,0 0,10 -10,0 z m 10,0 10,0 0,10 -10,0 z m 10,0 10,0 0,10 -10,0 z m 30,0 10,0 0,10 -10,0 z m 30,0 10,0 0,10 -10,0 z m 10,0 10,0 0,10 -10,0 z m 30,0 10,0 0,10 -10,0 z m 30,0 10,0 0,10 -10,0 z m 30,0 10,0 0,10 -10,0 z m 10,0 10,0 0,10 -10,0 z m 10,0 10,0 0,10 -10,0 z"
         id="path11-1-0" />
    </g>
  </g>
  <g
     inkscape:groupmode="layer"
     id="layer3"
     inkscape:label="QR Code White"
     style="display:inline;opacity:0.174;filter:url(#filter4820)"
     transform="translate(-208.41404,-276.50601)">
    <path
       id="path11-1"
       d="m 0,0 10,0 0,10 -10,0 z m 10,0 10,0 0,10 -10,0 z m 10,0 10,0 0,10 -10,0 z m 10,0 10,0 0,10 -10,0 z m 10,0 10,0 0,10 -10,0 z m 10,0 10,0 0,10 -10,0 z m 10,0 10,0 0,10 -10,0 z m 20,0 10,0 0,10 -10,0 z m 10,0 10,0 0,10 -10,0 z m 10,0 10,0 0,10 -10,0 z m 30,0 10,0 0,10 -10,0 z m 50,0 10,0 0,10 -10,0 z m 10,0 10,0 0,10 -10,0 z m 10,0 10,0 0,10 -10,0 z m 10,0 10,0 0,10 -10,0 z m 10,0 10,0 0,10 -10,0 z m 10,0 10,0 0,10 -10,0 z m 10,0 10,0 0,10 -10,0 z M 0,10 10,10 10,20 0,20 Z m 60,0 10,0 0,10 -10,0 z m 20,0 10,0 0,10 -10,0 z m 10,0 10,0 0,10 -10,0 z m 20,0 10,0 0,10 -10,0 z m 10,0 10,0 0,10 -10,0 z m 10,0 10,0 0,10 -10,0 z m 30,0 10,0 0,10 -10,0 z m 20,0 10,0 0,10 -10,0 z m 60,0 10,0 0,10 -10,0 z M 0,20 10,20 10,30 0,30 Z m 20,0 10,0 0,10 -10,0 z m 10,0 10,0 0,10 -10,0 z m 10,0 10,0 0,10 -10,0 z m 20,0 10,0 0,10 -10,0 z m 20,0 10,0 0,10 -10,0 z m 20,0 10,0 0,10 -10,0 z m 10,0 10,0 0,10 -10,0 z m 50,0 10,0 0,10 -10,0 z m 20,0 10,0 0,10 -10,0 z m 20,0 10,0 0,10 -10,0 z m 10,0 10,0 0,10 -10,0 z m 10,0 10,0 0,10 -10,0 z m 20,0 10,0 0,10 -10,0 z M 0,30 10,30 10,40 0,40 Z m 20,0 10,0 0,10 -10,0 z m 10,0 10,0 0,10 -10,0 z m 10,0 10,0 0,10 -10,0 z m 20,0 10,0 0,10 -10,0 z m 50,0 10,0 0,10 -10,0 z m 10,0 10,0 0,10 -10,0 z m 10,0 10,0 0,10 -10,0 z m 10,0 10,0 0,10 -10,0 z m 10,0 10,0 0,10 -10,0 z m 10,0 10,0 0,10 -10,0 z m 20,0 10,0 0,10 -10,0 z m 20,0 10,0 0,10 -10,0 z m 10,0 10,0 0,10 -10,0 z m 10,0 10,0 0,10 -10,0 z m 20,0 10,0 0,10 -10,0 z M 0,40 10,40 10,50 0,50 Z m 20,0 10,0 0,10 -10,0 z m 10,0 10,0 0,10 -10,0 z m 10,0 10,0 0,10 -10,0 z m 20,0 10,0 0,10 -10,0 z m 70,0 10,0 0,10 -10,0 z m 50,0 10,0 0,10 -10,0 z m 20,0 10,0 0,10 -10,0 z m 10,0 10,0 0,10 -10,0 z m 10,0 10,0 0,10 -10,0 z m 20,0 10,0 0,10 -10,0 z M 0,50 10,50 10,60 0,60 Z m 60,0 10,0 0,10 -10,0 z m 20,0 10,0 0,10 -10,0 z m 10,0 10,0 0,10 -10,0 z m 30,0 10,0 0,10 -10,0 z m 20,0 10,0 0,10 -10,0 z m 10,0 10,0 0,10 -10,0 z m 10,0 10,0 0,10 -10,0 z m 20,0 10,0 0,10 -10,0 z m 60,0 10,0 0,10 -10,0 z M 0,60 10,60 10,70 0,70 Z m 10,0 10,0 0,10 -10,0 z m 10,0 10,0 0,10 -10,0 z m 10,0 10,0 0,10 -10,0 z m 10,0 10,0 0,10 -10,0 z m 10,0 10,0 0,10 -10,0 z m 10,0 10,0 0,10 -10,0 z m 20,0 10,0 0,10 -10,0 z m 20,0 10,0 0,10 -10,0 z m 20,0 10,0 0,10 -10,0 z m 20,0 10,0 0,10 -10,0 z m 20,0 10,0 0,10 -10,0 z m 20,0 10,0 0,10 -10,0 z m 10,0 10,0 0,10 -10,0 z m 10,0 10,0 0,10 -10,0 z m 10,0 10,0 0,10 -10,0 z m 10,0 10,0 0,10 -10,0 z m 10,0 10,0 0,10 -10,0 z m 10,0 10,0 0,10 -10,0 z m -160,10 10,0 0,10 -10,0 z m 30,0 10,0 0,10 -10,0 z m 40,0 10,0 0,10 -10,0 z m -130,10 10,0 0,10 -10,0 z m 10,0 10,0 0,10 -10,0 z m 10,0 10,0 0,10 -10,0 z m 20,0 10,0 0,10 -10,0 z m 20,0 10,0 0,10 -10,0 z m 20,0 10,0 0,10 -10,0 z m 20,0 10,0 0,10 -10,0 z m 30,0 10,0 0,10 -10,0 z m 20,0 10,0 0,10 -10,0 z m 10,0 10,0 0,10 -10,0 z m 10,0 10,0 0,10 -10,0 z m 30,0 10,0 0,10 -10,0 z m 10,0 10,0 0,10 -10,0 z m 10,0 10,0 0,10 -10,0 z m -230,10 10,0 0,10 -10,0 z m 60,0 10,0 0,10 -10,0 z m 10,0 10,0 0,10 -10,0 z m 20,0 10,0 0,10 -10,0 z m 80,0 10,0 0,10 -10,0 z m 40,0 10,0 0,10 -10,0 z m -210,10 10,0 0,10 -10,0 z m 40,0 10,0 0,10 -10,0 z m 10,0 10,0 0,10 -10,0 z m 40,0 10,0 0,10 -10,0 z m 10,0 10,0 0,10 -10,0 z m 30,0 10,0 0,10 -10,0 z m 10,0 10,0 0,10 -10,0 z m 10,0 10,0 0,10 -10,0 z m 10,0 10,0 0,10 -10,0 z m 20,0 10,0 0,10 -10,0 z m 20,0 10,0 0,10 -10,0 z m 20,0 10,0 0,10 -10,0 z m 10,0 10,0 0,10 -10,0 z m -240,10 10,0 0,10 -10,0 z m 10,0 10,0 0,10 -10,0 z m 10,0 10,0 0,10 -10,0 z m 70,0 10,0 0,10 -10,0 z m 30,0 10,0 0,10 -10,0 z m 10,0 10,0 0,10 -10,0 z m 30,0 10,0 0,10 -10,0 z m 40,0 10,0 0,10 -10,0 z m 30,0 10,0 0,10 -10,0 z m 10,0 10,0 0,10 -10,0 z m -240,10 10,0 0,10 -10,0 z m 10,0 10,0 0,10 -10,0 z m 20,0 10,0 0,10 -10,0 z m 30,0 10,0 0,10 -10,0 z m 20,0 10,0 0,10 -10,0 z m 10,0 10,0 0,10 -10,0 z m 30,0 10,0 0,10 -10,0 z m 50,0 10,0 0,10 -10,0 z m 20,0 10,0 0,10 -10,0 z m 10,0 10,0 0,10 -10,0 z m 10,0 10,0 0,10 -10,0 z m 10,0 10,0 0,10 -10,0 z m 10,0 10,0 0,10 -10,0 z m 10,0 10,0 0,10 -10,0 z m -240,10 10,0 0,10 -10,0 z m 20,0 10,0 0,10 -10,0 z m 10,0 10,0 0,10 -10,0 z m 20,0 10,0 0,10 -10,0 z m 30,0 10,0 0,10 -10,0 z m 20,0 10,0 0,10 -10,0 z m 20,0 10,0 0,10 -10,0 z m 30,0 10,0 0,10 -10,0 z m 10,0 10,0 0,10 -10,0 z m 20,0 10,0 0,10 -10,0 z m 10,0 10,0 0,10 -10,0 z m -190,10 10,0 0,10 -10,0 z m 20,0 10,0 0,10 -10,0 z m 10,0 10,0 0,10 -10,0 z m 20,0 10,0 0,10 -10,0 z m 10,0 10,0 0,10 -10,0 z m 60,0 10,0 0,10 -10,0 z m 10,0 10,0 0,10 -10,0 z m 50,0 10,0 0,10 -10,0 z m 50,0 10,0 0,10 -10,0 z m 10,0 10,0 0,10 -10,0 z m -240,10 10,0 0,10 -10,0 z m 20,0 10,0 0,10 -10,0 z m 10,0 10,0 0,10 -10,0 z m 10,0 10,0 0,10 -10,0 z m 30,0 10,0 0,10 -10,0 z m 10,0 10,0 0,10 -10,0 z m 10,0 10,0 0,10 -10,0 z m 10,0 10,0 0,10 -10,0 z m 60,0 10,0 0,10 -10,0 z m 10,0 10,0 0,10 -10,0 z m 10,0 10,0 0,10 -10,0 z m 20,0 10,0 0,10 -10,0 z m 40,0 10,0 0,10 -10,0 z m -240,10 10,0 0,10 -10,0 z m 60,0 10,0 0,10 -10,0 z m 20,0 10,0 0,10 -10,0 z m 20,0 10,0 0,10 -10,0 z m 10,0 10,0 0,10 -10,0 z m 50,0 10,0 0,10 -10,0 z m 10,0 10,0 0,10 -10,0 z m 10,0 10,0 0,10 -10,0 z m 10,0 10,0 0,10 -10,0 z m 10,0 10,0 0,10 -10,0 z m 20,0 10,0 0,10 -10,0 z m 10,0 10,0 0,10 -10,0 z m 10,0 10,0 0,10 -10,0 z m -160,10 10,0 0,10 -10,0 z m 50,0 10,0 0,10 -10,0 z m 30,0 10,0 0,10 -10,0 z m 40,0 10,0 0,10 -10,0 z m 10,0 10,0 0,10 -10,0 z m 20,0 10,0 0,10 -10,0 z m -230,10 10,0 0,10 -10,0 z m 10,0 10,0 0,10 -10,0 z m 10,0 10,0 0,10 -10,0 z m 10,0 10,0 0,10 -10,0 z m 10,0 10,0 0,10 -10,0 z m 10,0 10,0 0,10 -10,0 z m 10,0 10,0 0,10 -10,0 z m 40,0 10,0 0,10 -10,0 z m 10,0 10,0 0,10 -10,0 z m 20,0 10,0 0,10 -10,0 z m 10,0 10,0 0,10 -10,0 z m 10,0 10,0 0,10 -10,0 z m 10,0 10,0 0,10 -10,0 z m 20,0 10,0 0,10 -10,0 z m 20,0 10,0 0,10 -10,0 z m 10,0 10,0 0,10 -10,0 z m 20,0 10,0 0,10 -10,0 z m 10,0 10,0 0,10 -10,0 z m -240,10 10,0 0,10 -10,0 z m 60,0 10,0 0,10 -10,0 z m 40,0 10,0 0,10 -10,0 z m 50,0 10,0 0,10 -10,0 z m 10,0 10,0 0,10 -10,0 z m 40,0 10,0 0,10 -10,0 z m 30,0 10,0 0,10 -10,0 z m 10,0 10,0 0,10 -10,0 z m -240,10 10,0 0,10 -10,0 z m 20,0 10,0 0,10 -10,0 z m 10,0 10,0 0,10 -10,0 z m 10,0 10,0 0,10 -10,0 z m 20,0 10,0 0,10 -10,0 z m 20,0 10,0 0,10 -10,0 z m 10,0 10,0 0,10 -10,0 z m 30,0 10,0 0,10 -10,0 z m 10,0 10,0 0,10 -10,0 z m 20,0 10,0 0,10 -10,0 z m 10,0 10,0 0,10 -10,0 z m 10,0 10,0 0,10 -10,0 z m 10,0 10,0 0,10 -10,0 z m 10,0 10,0 0,10 -10,0 z m 10,0 10,0 0,10 -10,0 z m 10,0 10,0 0,10 -10,0 z m 10,0 10,0 0,10 -10,0 z m -220,10 10,0 0,10 -10,0 z m 20,0 10,0 0,10 -10,0 z m 10,0 10,0 0,10 -10,0 z m 10,0 10,0 0,10 -10,0 z m 20,0 10,0 0,10 -10,0 z m 20,0 10,0 0,10 -10,0 z m 50,0 10,0 0,10 -10,0 z m 50,0 10,0 0,10 -10,0 z m 20,0 10,0 0,10 -10,0 z m 10,0 10,0 0,10 -10,0 z m 30,0 10,0 0,10 -10,0 z m -240,10 10,0 0,10 -10,0 z m 20,0 10,0 0,10 -10,0 z m 10,0 10,0 0,10 -10,0 z m 10,0 10,0 0,10 -10,0 z m 20,0 10,0 0,10 -10,0 z m 20,0 10,0 0,10 -10,0 z m 10,0 10,0 0,10 -10,0 z m 30,0 10,0 0,10 -10,0 z m 30,0 10,0 0,10 -10,0 z m 20,0 10,0 0,10 -10,0 z m 10,0 10,0 0,10 -10,0 z m 10,0 10,0 0,10 -10,0 z m 50,0 10,0 0,10 -10,0 z m -240,10 10,0 0,10 -10,0 z m 60,0 10,0 0,10 -10,0 z m 50,0 10,0 0,10 -10,0 z m 30,0 10,0 0,10 -10,0 z m 10,0 10,0 0,10 -10,0 z m 20,0 10,0 0,10 -10,0 z m 70,0 10,0 0,10 -10,0 z m -240,10 10,0 0,10 -10,0 z m 10,0 10,0 0,10 -10,0 z m 10,0 10,0 0,10 -10,0 z m 10,0 10,0 0,10 -10,0 z m 10,0 10,0 0,10 -10,0 z m 10,0 10,0 0,10 -10,0 z m 10,0 10,0 0,10 -10,0 z m 30,0 10,0 0,10 -10,0 z m 30,0 10,0 0,10 -10,0 z m 10,0 10,0 0,10 -10,0 z m 30,0 10,0 0,10 -10,0 z m 30,0 10,0 0,10 -10,0 z m 30,0 10,0 0,10 -10,0 z m 10,0 10,0 0,10 -10,0 z m 10,0 10,0 0,10 -10,0 z"
       style="fill:#000000;filter:url(#filter4503)"
       inkscape:connector-curvature="0"
       transform="matrix(0.84606118,0,0,0.84606118,183.08694,249.14591)"
       mask="url(#mask5032)" />
  </g>
  <g
     inkscape:groupmode="layer"
     id="layer4"
     inkscape:label="Logo"
     style="display:inline;filter:url(#filter5036)"
     transform="translate(-208.41404,-276.50601)">
    <g
       style="font-style:normal;font-weight:normal;font-size:40px;line-height:125%;font-family:sans-serif;letter-spacing:0px;word-spacing:0px;fill:#488aff;fill-opacity:1;stroke:#488aff;stroke-width:12.28531742;stroke-linecap:butt;stroke-linejoin:miter;stroke-miterlimit:4;stroke-dasharray:none;stroke-opacity:1"
       id="g4275"
       transform="matrix(-0.95409082,0,0,-1,736.79681,514.27873)" />
    <g
       style="font-style:normal;font-weight:normal;font-size:40px;line-height:125%;font-family:sans-serif;letter-spacing:0px;word-spacing:0px;fill:#488aff;fill-opacity:1;stroke:#488aff;stroke-width:12.28531742;stroke-linecap:butt;stroke-linejoin:miter;stroke-miterlimit:4;stroke-dasharray:none;stroke-opacity:1"
       id="g4277"
       transform="matrix(0.95409082,0,0,-1,875.27415,514.27873)" />
    <g
       style="font-style:normal;font-weight:normal;font-size:40px;line-height:125%;font-family:sans-serif;letter-spacing:0px;word-spacing:0px;fill:#000000;fill-opacity:1;stroke:#000000;stroke-width:12.28531742;stroke-linecap:butt;stroke-linejoin:miter;stroke-miterlimit:4;stroke-dasharray:none;stroke-opacity:0.39263802;filter:url(#filter4710)"
       id="g4706"
       transform="matrix(0.95409082,0,0,1,877.15283,96.49541)">
      <path
         d="m -588.99128,308.72268 0,-21.96289 28.75391,0 0,-13.1582 -28.75391,0 0,-39.62891 0,-6.68359 c 0,-11.96289 -2.30566,-20.22201 -6.91992,-24.7793 -4.61426,-4.50032 -12.98925,-6.75 -25.12305,-6.75 l -16.15039,0 -16.15039,0 c -12.13379,0 -20.50878,2.24968 -25.12304,6.75 -4.61426,4.55729 -6.91993,12.81641 -6.91992,24.7793 l 0,13.9707 0,13.9707 c 0,11.96289 2.30566,20.22201 6.91992,24.7793 4.61426,4.50032 12.98925,6.75 25.12304,6.75 l 4.84766,0 43.68945,0 0,21.96289 15.80664,0 z m -15.80664,-35.12109 -43.68945,0 -4.84766,0 c -6.55111,1e-5 -10.90949,-1.11035 -13.07422,-3.33203 -2.10775,-2.22168 -3.1621,-7.23471 -3.1621,-15.03907 l 0,-13.9707 0,-13.9707 c 0,-7.80436 1.05435,-12.81738 3.1621,-15.03906 2.16472,-2.22168 6.52311,-3.33205 13.07422,-3.33204 l 16.15039,0 16.15039,0 c 6.55111,-1e-5 10.90951,1.11036 13.07422,3.33204 2.10775,2.22168 3.16211,7.2347 3.16211,15.03906 l 0,13.9707 0,32.3418 z m 4.2e-4,-21.96191 0,21.96289 -28.75391,0 0,13.1582 28.75391,0 0,39.62891 0,6.68359 c 0,11.96289 2.30566,20.22201 6.91992,24.7793 4.61426,4.50032 12.98925,6.75 25.12305,6.75 l 16.15039,0 16.15039,0 c 12.13379,0 20.50878,-2.24968 25.12304,-6.75 4.61426,-4.55729 6.91993,-12.81641 6.91992,-24.7793 l 0,-13.9707 0,-13.9707 c 0,-11.96289 -2.30566,-20.22201 -6.91992,-24.7793 -4.61426,-4.50032 -12.98925,-6.75 -25.12304,-6.75 l -4.84766,0 -43.68945,0 0,-21.96289 -15.80664,0 z m 15.80664,35.12109 43.68945,0 4.84766,0 c 6.55111,-10e-6 10.90949,1.11035 13.07422,3.33203 2.10775,2.22168 3.1621,7.23471 3.1621,15.03907 l 0,13.9707 0,13.9707 c 0,7.80436 -1.05435,12.81738 -3.1621,15.03906 -2.16472,2.22168 -6.52311,3.33205 -13.07422,3.33204 l -16.15039,0 -16.15039,0 c -6.55111,1e-5 -10.90951,-1.11036 -13.07422,-3.33204 -2.10775,-2.22168 -3.16211,-7.2347 -3.16211,-15.03906 l 0,-13.9707 0,-32.3418 z"
         style="font-size:175px;fill:#000000;fill-opacity:1;stroke:#000000;stroke-width:12.28531742;stroke-linejoin:miter;stroke-miterlimit:4;stroke-dasharray:none;stroke-opacity:0.39263802"
         id="path4708"
         inkscape:connector-curvature="0" />
    </g>
    <g
       transform="matrix(0.95409082,0,0,1,877.15283,96.49541)"
       id="g4947"
       style="font-style:normal;font-weight:normal;font-size:40px;line-height:125%;font-family:sans-serif;letter-spacing:0px;word-spacing:0px;fill:#000000;fill-opacity:1;stroke:#000000;stroke-width:12.28531742;stroke-linecap:butt;stroke-linejoin:miter;stroke-miterlimit:4;stroke-dasharray:none;stroke-opacity:0.39263802;filter:url(#filter4710)">
      <path
         inkscape:connector-curvature="0"
         id="path4949"
         style="font-size:175px;fill:#000000;fill-opacity:1;stroke:#000000;stroke-width:12.28531742;stroke-linejoin:miter;stroke-miterlimit:4;stroke-dasharray:none;stroke-opacity:0.39263802"
         d="m -588.99128,308.72268 0,-21.96289 28.75391,0 0,-13.1582 -28.75391,0 0,-39.62891 0,-6.68359 c 0,-11.96289 -2.30566,-20.22201 -6.91992,-24.7793 -4.61426,-4.50032 -12.98925,-6.75 -25.12305,-6.75 l -16.15039,0 -16.15039,0 c -12.13379,0 -20.50878,2.24968 -25.12304,6.75 -4.61426,4.55729 -6.91993,12.81641 -6.91992,24.7793 l 0,13.9707 0,13.9707 c 0,11.96289 2.30566,20.22201 6.91992,24.7793 4.61426,4.50032 12.98925,6.75 25.12304,6.75 l 4.84766,0 43.68945,0 0,21.96289 15.80664,0 z m -15.80664,-35.12109 -43.68945,0 -4.84766,0 c -6.55111,1e-5 -10.90949,-1.11035 -13.07422,-3.33203 -2.10775,-2.22168 -3.1621,-7.23471 -3.1621,-15.03907 l 0,-13.9707 0,-13.9707 c 0,-7.80436 1.05435,-12.81738 3.1621,-15.03906 2.16472,-2.22168 6.52311,-3.33205 13.07422,-3.33204 l 16.15039,0 16.15039,0 c 6.55111,-1e-5 10.90951,1.11036 13.07422,3.33204 2.10775,2.22168 3.16211,7.2347 3.16211,15.03906 l 0,13.9707 0,32.3418 z m 4.2e-4,-21.96191 0,21.96289 -28.75391,0 0,13.1582 28.75391,0 0,39.62891 0,6.68359 c 0,11.96289 2.30566,20.22201 6.91992,24.7793 4.61426,4.50032 12.98925,6.75 25.12305,6.75 l 16.15039,0 16.15039,0 c 12.13379,0 20.50878,-2.24968 25.12304,-6.75 4.61426,-4.55729 6.91993,-12.81641 6.91992,-24.7793 l 0,-13.9707 0,-13.9707 c 0,-11.96289 -2.30566,-20.22201 -6.91992,-24.7793 -4.61426,-4.50032 -12.98925,-6.75 -25.12304,-6.75 l -4.84766,0 -43.68945,0 0,-21.96289 -15.80664,0 z m 15.80664,35.12109 43.68945,0 4.84766,0 c 6.55111,-10e-6 10.90949,1.11035 13.07422,3.33203 2.10775,2.22168 3.1621,7.23471 3.1621,15.03907 l 0,13.9707 0,13.9707 c 0,7.80436 -1.05435,12.81738 -3.1621,15.03906 -2.16472,2.22168 -6.52311,3.33205 -13.07422,3.33204 l -16.15039,0 -16.15039,0 c -6.55111,1e-5 -10.90951,-1.11036 -13.07422,-3.33204 -2.10775,-2.22168 -3.16211,-7.2347 -3.16211,-15.03906 l 0,-13.9707 0,-32.3418 z" />
    </g>
    <g
       transform="matrix(0.95409082,0,0,1,875.27415,93.55607)"
       id="g4279"
       style="font-style:normal;font-weight:normal;font-size:40px;line-height:125%;font-family:sans-serif;letter-spacing:0px;word-spacing:0px;opacity:0.95999995;fill:#488aff;fill-opacity:1;stroke:#488aff;stroke-width:12.28531742;stroke-linecap:butt;stroke-linejoin:miter;stroke-miterlimit:4;stroke-dasharray:none;stroke-opacity:1">
      <path
         id="path4281"
         style="font-size:175px;fill:#488aff;fill-opacity:1;stroke:#488aff;stroke-width:12.28531742;stroke-linejoin:miter;stroke-miterlimit:4;stroke-dasharray:none;stroke-opacity:1"
         d="m -588.99128,308.72268 0,-21.96289 28.75391,0 0,-13.1582 -28.75391,0 0,-39.62891 0,-6.68359 c 0,-11.96289 -2.30566,-20.22201 -6.91992,-24.7793 -4.61426,-4.50032 -12.98925,-6.75 -25.12305,-6.75 l -16.15039,0 -16.15039,0 c -12.13379,0 -20.50878,2.24968 -25.12304,6.75 -4.61426,4.55729 -6.91993,12.81641 -6.91992,24.7793 l 0,13.9707 0,13.9707 c 0,11.96289 2.30566,20.22201 6.91992,24.7793 4.61426,4.50032 12.98925,6.75 25.12304,6.75 l 4.84766,0 43.68945,0 0,21.96289 15.80664,0 z m -15.80664,-35.12109 -43.68945,0 -4.84766,0 c -6.55111,1e-5 -10.90949,-1.11035 -13.07422,-3.33203 -2.10775,-2.22168 -3.1621,-7.23471 -3.1621,-15.03907 l 0,-13.9707 0,-13.9707 c 0,-7.80436 1.05435,-12.81738 3.1621,-15.03906 2.16472,-2.22168 6.52311,-3.33205 13.07422,-3.33204 l 16.15039,0 16.15039,0 c 6.55111,-1e-5 10.90951,1.11036 13.07422,3.33204 2.10775,2.22168 3.16211,7.2347 3.16211,15.03906 l 0,13.9707 0,32.3418 z m 4.2e-4,-21.96191 0,21.96289 -28.75391,0 0,13.1582 28.75391,0 0,39.62891 0,6.68359 c 0,11.96289 2.30566,20.22201 6.91992,24.7793 4.61426,4.50032 12.98925,6.75 25.12305,6.75 l 16.15039,0 16.15039,0 c 12.13379,0 20.50878,-2.24968 25.12304,-6.75 4.61426,-4.55729 6.91993,-12.81641 6.91992,-24.7793 l 0,-13.9707 0,-13.9707 c 0,-11.96289 -2.30566,-20.22201 -6.91992,-24.7793 -4.61426,-4.50032 -12.98925,-6.75 -25.12304,-6.75 l -4.84766,0 -43.68945,0 0,-21.96289 -15.80664,0 z m 15.80664,35.12109 43.68945,0 4.84766,0 c 6.55111,-10e-6 10.90949,1.11035 13.07422,3.33203 2.10775,2.22168 3.1621,7.23471 3.1621,15.03907 l 0,13.9707 0,13.9707 c 0,7.80436 -1.05435,12.81738 -3.1621,15.03906 -2.16472,2.22168 -6.52311,3.33205 -13.07422,3.33204 l -16.15039,0 -16.15039,0 c -6.55111,1e-5 -10.90951,-1.11036 -13.07422,-3.33204 -2.10775,-2.22168 -3.16211,-7.2347 -3.16211,-15.03906 l 0,-13.9707 0,-32.3418 z"
         inkscape:connector-curvature="0" />
    </g>
    <g
       transform="matrix(-0.95409082,0,0,-1,125.85655,500.13659)"
       id="g4288"
       style="font-style:normal;font-weight:normal;font-size:40px;line-height:125%;font-family:sans-serif;letter-spacing:0px;word-spacing:0px;fill:#ffffff;fill-opacity:1;stroke:#59c156;stroke-width:2.04755282;stroke-linecap:butt;stroke-linejoin:round;stroke-miterlimit:4;stroke-dasharray:none;stroke-opacity:1" />
    <g
       transform="matrix(0.95409082,0,0,-1,264.33389,500.13659)"
       id="g4290"
       style="font-style:normal;font-weight:normal;font-size:40px;line-height:125%;font-family:sans-serif;letter-spacing:0px;word-spacing:0px;fill:#ffffff;fill-opacity:1;stroke:#59c156;stroke-width:2.04755282;stroke-linecap:butt;stroke-linejoin:round;stroke-miterlimit:4;stroke-dasharray:none;stroke-opacity:1" />
    <path
       style="color:#000000;font-style:normal;font-variant:normal;font-weight:normal;font-stretch:normal;font-size:175px;line-height:125%;font-family:sans-serif;text-indent:0;text-align:start;text-decoration:none;text-decoration-line:none;text-decoration-style:solid;text-decoration-color:#000000;letter-spacing:0px;word-spacing:0px;text-transform:none;direction:ltr;block-progression:tb;writing-mode:lr-tb;baseline-shift:baseline;text-anchor:start;white-space:normal;clip-rule:nonzero;display:inline;overflow:visible;visibility:visible;opacity:1;isolation:auto;mix-blend-mode:normal;color-interpolation:sRGB;color-interpolation-filters:linearRGB;solid-color:#000000;solid-opacity:1;fill:#ffffff;fill-opacity:1;fill-rule:nonzero;stroke:#ffffff;stroke-width:8;stroke-linecap:butt;stroke-linejoin:round;stroke-miterlimit:4;stroke-dasharray:none;stroke-dashoffset:0;stroke-opacity:1;color-rendering:auto;image-rendering:auto;shape-rendering:auto;text-rendering:auto;enable-background:accumulate"
       d="m 301.24104,350.29839 c 3.11253,-0.76665 6.13615,-0.7332 9.08203,0 l 0,19.85937 15.94531,0 c 1.00825,1.97156 1.77844,4.04114 0,7.16016 l -15.94531,0 0,24.96094 0,10.38086 0,13.9707 c 0,8.0379 0.68644,13.61878 3.79297,17.05078 l -0.18164,-0.23242 0.22656,0.33789 0.33789,0.22656 -0.35547,-0.30273 c 3.05486,3.28611 8.07877,4.29103 14.66993,4.29102 l 14.47851,0 c 0.50667,2.30162 0.4933,4.68992 0,7.1582 l -14.47851,0 c -11.17486,0 -18.34116,-2.29518 -21.81446,-5.83789 l -0.002,-0.004 c -3.47362,-3.60125 -5.75586,-11.10388 -5.75586,-22.6875 l 0,-6.68359 0,-17.66797 0,-24.96094 -13.48828,0 c -0.77204,-2.38672 -1.05211,-4.77344 0,-7.16016 l 13.48828,0 0,-19.85937 z"
       id="path4294"
       inkscape:connector-curvature="0"
       sodipodi:nodetypes="ccccccccscccccsccsccscccccccc"
       inkscape:export-xdpi="90"
       inkscape:export-ydpi="90" />
    <path
       inkscape:export-ydpi="90"
       inkscape:export-xdpi="90"
       sodipodi:nodetypes="ccccccccscccccsccsccscccccccc"
       inkscape:connector-curvature="0"
       id="path4955"
       d="m 301.24104,350.29839 c 3.11253,-0.76665 6.13615,-0.7332 9.08203,0 l 0,19.85937 15.94531,0 c 1.00825,1.97156 1.77844,4.04114 0,7.16016 l -15.94531,0 0,24.96094 0,10.38086 0,13.9707 c 0,8.0379 0.68644,13.61878 3.79297,17.05078 l -0.18164,-0.23242 0.22656,0.33789 0.33789,0.22656 -0.35547,-0.30273 c 3.05486,3.28611 8.07877,4.29103 14.66993,4.29102 l 14.47851,0 c 0.50667,2.30162 0.4933,4.68992 0,7.1582 l -14.47851,0 c -11.17486,0 -18.34116,-2.29518 -21.81446,-5.83789 l -0.002,-0.004 c -3.47362,-3.60125 -5.75586,-11.10388 -5.75586,-22.6875 l 0,-6.68359 0,-17.66797 0,-24.96094 -13.48828,0 c -0.77204,-2.38672 -1.05211,-4.77344 0,-7.16016 l 13.48828,0 0,-19.85937 z"
       style="color:#000000;font-style:normal;font-variant:normal;font-weight:normal;font-stretch:normal;font-size:175px;line-height:125%;font-family:sans-serif;text-indent:0;text-align:start;text-decoration:none;text-decoration-line:none;text-decoration-style:solid;text-decoration-color:#000000;letter-spacing:0px;word-spacing:0px;text-transform:none;direction:ltr;block-progression:tb;writing-mode:lr-tb;baseline-shift:baseline;text-anchor:start;white-space:normal;clip-rule:nonzero;display:inline;overflow:visible;visibility:visible;opacity:1;isolation:auto;mix-blend-mode:normal;color-interpolation:sRGB;color-interpolation-filters:linearRGB;solid-color:#000000;solid-opacity:1;fill:#ffffff;fill-opacity:1;fill-rule:nonzero;stroke:#ffffff;stroke-width:8;stroke-linecap:butt;stroke-linejoin:round;stroke-miterlimit:4;stroke-dasharray:none;stroke-dashoffset:0;stroke-opacity:1;color-rendering:auto;image-rendering:auto;shape-rendering:auto;text-rendering:auto;enable-background:accumulate" />
  </g>
</svg>
