<?xml version="1.0" encoding="UTF-8" standalone="no"?>
<!-- Created with Inkscape (http://www.inkscape.org/) -->

<svg
   xmlns:dc="http://purl.org/dc/elements/1.1/"
   xmlns:cc="http://creativecommons.org/ns#"
   xmlns:rdf="http://www.w3.org/1999/02/22-rdf-syntax-ns#"
   xmlns:svg="http://www.w3.org/2000/svg"
   xmlns="http://www.w3.org/2000/svg"
   xmlns:sodipodi="http://sodipodi.sourceforge.net/DTD/sodipodi-0.dtd"
   xmlns:inkscape="http://www.inkscape.org/namespaces/inkscape"
   width="210mm"
   height="297mm"
   viewBox="0 0 744.09448819 1052.3622047"
   id="svg2"
   version="1.1"
   inkscape:version="0.91 r13725"
   enable-background="new"
   sodipodi:docname="telepathy-logo.svg">
  <defs
     id="defs4">
    <filter
       style="color-interpolation-filters:sRGB;"
       inkscape:label="Invert"
       id="filter4503">
      <feColorMatrix
         type="hueRotate"
         values="180"
         result="color1"
         id="feColorMatrix4505" />
      <feColorMatrix
         values="-1 0 0 0 1 0 -1 0 0 1 0 0 -1 0 1 -0.21 -0.72 -0.07 2 0 "
         result="color2"
         id="feColorMatrix4507" />
    </filter>
    <filter
       inkscape:collect="always"
       style="color-interpolation-filters:sRGB"
       id="filter4509">
      <feBlend
         inkscape:collect="always"
         mode="lighten"
         in2="BackgroundImage"
         id="feBlend4511" />
    </filter>
    <filter
       inkscape:collect="always"
       style="color-interpolation-filters:sRGB"
       id="filter4555">
      <feBlend
         inkscape:collect="always"
         mode="lighten"
         in2="BackgroundImage"
         id="feBlend4557" />
    </filter>
    <filter
       inkscape:collect="always"
       style="color-interpolation-filters:sRGB"
       id="filter4559">
      <feBlend
         inkscape:collect="always"
         mode="darken"
         in2="BackgroundImage"
         id="feBlend4561" />
    </filter>
  </defs>
  <sodipodi:namedview
     id="base"
     pagecolor="#ffffff"
     bordercolor="#666666"
     borderopacity="1.0"
     inkscape:pageopacity="0.0"
     inkscape:pageshadow="2"
     inkscape:zoom="0.35355339"
     inkscape:cx="-961.02542"
     inkscape:cy="928.49596"
     inkscape:document-units="px"
     inkscape:current-layer="layer3"
     showgrid="false"
     showborder="true"
     inkscape:snap-bbox="true"
     inkscape:bbox-paths="true"
     inkscape:bbox-nodes="true"
     inkscape:snap-bbox-edge-midpoints="true"
     inkscape:snap-bbox-midpoints="true"
     inkscape:window-width="1920"
     inkscape:window-height="1029"
     inkscape:window-x="0"
     inkscape:window-y="25"
     inkscape:window-maximized="1"
     borderlayer="false" />
  <metadata
     id="metadata7">
    <rdf:RDF>
      <cc:Work
         rdf:about="">
        <dc:format>image/svg+xml</dc:format>
        <dc:type
           rdf:resource="http://purl.org/dc/dcmitype/StillImage" />
        <dc:title></dc:title>
      </cc:Work>
    </rdf:RDF>
  </metadata>
  <g
     inkscape:groupmode="layer"
     id="layer6"
     inkscape:label="QR Code Black"
     style="filter:url(#filter4559);opacity:0.09961686">
    <g
       id="elements-1-9"
       transform="matrix(0.72225637,0,0,0.72225637,215.50064,283.4552)"
       style="display:inline;opacity:1;filter:url(#filter4509)">
      <path
         inkscape:connector-curvature="0"
         style="fill:#000000"
         d="m 0,0 10,0 0,10 -10,0 z m 10,0 10,0 0,10 -10,0 z m 10,0 10,0 0,10 -10,0 z m 10,0 10,0 0,10 -10,0 z m 10,0 10,0 0,10 -10,0 z m 10,0 10,0 0,10 -10,0 z m 10,0 10,0 0,10 -10,0 z m 20,0 10,0 0,10 -10,0 z m 10,0 10,0 0,10 -10,0 z m 10,0 10,0 0,10 -10,0 z m 30,0 10,0 0,10 -10,0 z m 50,0 10,0 0,10 -10,0 z m 10,0 10,0 0,10 -10,0 z m 10,0 10,0 0,10 -10,0 z m 10,0 10,0 0,10 -10,0 z m 10,0 10,0 0,10 -10,0 z m 10,0 10,0 0,10 -10,0 z m 10,0 10,0 0,10 -10,0 z M 0,10 10,10 10,20 0,20 Z m 60,0 10,0 0,10 -10,0 z m 20,0 10,0 0,10 -10,0 z m 10,0 10,0 0,10 -10,0 z m 20,0 10,0 0,10 -10,0 z m 10,0 10,0 0,10 -10,0 z m 10,0 10,0 0,10 -10,0 z m 30,0 10,0 0,10 -10,0 z m 20,0 10,0 0,10 -10,0 z m 60,0 10,0 0,10 -10,0 z M 0,20 10,20 10,30 0,30 Z m 20,0 10,0 0,10 -10,0 z m 10,0 10,0 0,10 -10,0 z m 10,0 10,0 0,10 -10,0 z m 20,0 10,0 0,10 -10,0 z m 20,0 10,0 0,10 -10,0 z m 20,0 10,0 0,10 -10,0 z m 10,0 10,0 0,10 -10,0 z m 50,0 10,0 0,10 -10,0 z m 20,0 10,0 0,10 -10,0 z m 20,0 10,0 0,10 -10,0 z m 10,0 10,0 0,10 -10,0 z m 10,0 10,0 0,10 -10,0 z m 20,0 10,0 0,10 -10,0 z M 0,30 10,30 10,40 0,40 Z m 20,0 10,0 0,10 -10,0 z m 10,0 10,0 0,10 -10,0 z m 10,0 10,0 0,10 -10,0 z m 20,0 10,0 0,10 -10,0 z m 50,0 10,0 0,10 -10,0 z m 10,0 10,0 0,10 -10,0 z m 10,0 10,0 0,10 -10,0 z m 10,0 10,0 0,10 -10,0 z m 10,0 10,0 0,10 -10,0 z m 10,0 10,0 0,10 -10,0 z m 20,0 10,0 0,10 -10,0 z m 20,0 10,0 0,10 -10,0 z m 10,0 10,0 0,10 -10,0 z m 10,0 10,0 0,10 -10,0 z m 20,0 10,0 0,10 -10,0 z M 0,40 10,40 10,50 0,50 Z m 20,0 10,0 0,10 -10,0 z m 10,0 10,0 0,10 -10,0 z m 10,0 10,0 0,10 -10,0 z m 20,0 10,0 0,10 -10,0 z m 70,0 10,0 0,10 -10,0 z m 50,0 10,0 0,10 -10,0 z m 20,0 10,0 0,10 -10,0 z m 10,0 10,0 0,10 -10,0 z m 10,0 10,0 0,10 -10,0 z m 20,0 10,0 0,10 -10,0 z M 0,50 10,50 10,60 0,60 Z m 60,0 10,0 0,10 -10,0 z m 20,0 10,0 0,10 -10,0 z m 10,0 10,0 0,10 -10,0 z m 30,0 10,0 0,10 -10,0 z m 20,0 10,0 0,10 -10,0 z m 10,0 10,0 0,10 -10,0 z m 10,0 10,0 0,10 -10,0 z m 20,0 10,0 0,10 -10,0 z m 60,0 10,0 0,10 -10,0 z M 0,60 10,60 10,70 0,70 Z m 10,0 10,0 0,10 -10,0 z m 10,0 10,0 0,10 -10,0 z m 10,0 10,0 0,10 -10,0 z m 10,0 10,0 0,10 -10,0 z m 10,0 10,0 0,10 -10,0 z m 10,0 10,0 0,10 -10,0 z m 20,0 10,0 0,10 -10,0 z m 20,0 10,0 0,10 -10,0 z m 20,0 10,0 0,10 -10,0 z m 20,0 10,0 0,10 -10,0 z m 20,0 10,0 0,10 -10,0 z m 20,0 10,0 0,10 -10,0 z m 10,0 10,0 0,10 -10,0 z m 10,0 10,0 0,10 -10,0 z m 10,0 10,0 0,10 -10,0 z m 10,0 10,0 0,10 -10,0 z m 10,0 10,0 0,10 -10,0 z m 10,0 10,0 0,10 -10,0 z m -160,10 10,0 0,10 -10,0 z m 30,0 10,0 0,10 -10,0 z m 40,0 10,0 0,10 -10,0 z m -130,10 10,0 0,10 -10,0 z m 10,0 10,0 0,10 -10,0 z m 10,0 10,0 0,10 -10,0 z m 20,0 10,0 0,10 -10,0 z m 20,0 10,0 0,10 -10,0 z m 20,0 10,0 0,10 -10,0 z m 20,0 10,0 0,10 -10,0 z m 30,0 10,0 0,10 -10,0 z m 20,0 10,0 0,10 -10,0 z m 10,0 10,0 0,10 -10,0 z m 10,0 10,0 0,10 -10,0 z m 30,0 10,0 0,10 -10,0 z m 10,0 10,0 0,10 -10,0 z m 10,0 10,0 0,10 -10,0 z m -230,10 10,0 0,10 -10,0 z m 60,0 10,0 0,10 -10,0 z m 10,0 10,0 0,10 -10,0 z m 20,0 10,0 0,10 -10,0 z m 80,0 10,0 0,10 -10,0 z m 40,0 10,0 0,10 -10,0 z m -210,10 10,0 0,10 -10,0 z m 40,0 10,0 0,10 -10,0 z m 10,0 10,0 0,10 -10,0 z m 40,0 10,0 0,10 -10,0 z m 10,0 10,0 0,10 -10,0 z m 30,0 10,0 0,10 -10,0 z m 10,0 10,0 0,10 -10,0 z m 10,0 10,0 0,10 -10,0 z m 10,0 10,0 0,10 -10,0 z m 20,0 10,0 0,10 -10,0 z m 20,0 10,0 0,10 -10,0 z m 20,0 10,0 0,10 -10,0 z m 10,0 10,0 0,10 -10,0 z m -240,10 10,0 0,10 -10,0 z m 10,0 10,0 0,10 -10,0 z m 10,0 10,0 0,10 -10,0 z m 70,0 10,0 0,10 -10,0 z m 30,0 10,0 0,10 -10,0 z m 10,0 10,0 0,10 -10,0 z m 30,0 10,0 0,10 -10,0 z m 40,0 10,0 0,10 -10,0 z m 30,0 10,0 0,10 -10,0 z m 10,0 10,0 0,10 -10,0 z m -240,10 10,0 0,10 -10,0 z m 10,0 10,0 0,10 -10,0 z m 20,0 10,0 0,10 -10,0 z m 30,0 10,0 0,10 -10,0 z m 20,0 10,0 0,10 -10,0 z m 10,0 10,0 0,10 -10,0 z m 30,0 10,0 0,10 -10,0 z m 50,0 10,0 0,10 -10,0 z m 20,0 10,0 0,10 -10,0 z m 10,0 10,0 0,10 -10,0 z m 10,0 10,0 0,10 -10,0 z m 10,0 10,0 0,10 -10,0 z m 10,0 10,0 0,10 -10,0 z m 10,0 10,0 0,10 -10,0 z m -240,10 10,0 0,10 -10,0 z m 20,0 10,0 0,10 -10,0 z m 10,0 10,0 0,10 -10,0 z m 20,0 10,0 0,10 -10,0 z m 30,0 10,0 0,10 -10,0 z m 20,0 10,0 0,10 -10,0 z m 20,0 10,0 0,10 -10,0 z m 30,0 10,0 0,10 -10,0 z m 10,0 10,0 0,10 -10,0 z m 20,0 10,0 0,10 -10,0 z m 10,0 10,0 0,10 -10,0 z m -190,10 10,0 0,10 -10,0 z m 20,0 10,0 0,10 -10,0 z m 10,0 10,0 0,10 -10,0 z m 20,0 10,0 0,10 -10,0 z m 10,0 10,0 0,10 -10,0 z m 60,0 10,0 0,10 -10,0 z m 10,0 10,0 0,10 -10,0 z m 50,0 10,0 0,10 -10,0 z m 50,0 10,0 0,10 -10,0 z m 10,0 10,0 0,10 -10,0 z m -240,10 10,0 0,10 -10,0 z m 20,0 10,0 0,10 -10,0 z m 10,0 10,0 0,10 -10,0 z m 10,0 10,0 0,10 -10,0 z m 30,0 10,0 0,10 -10,0 z m 10,0 10,0 0,10 -10,0 z m 10,0 10,0 0,10 -10,0 z m 10,0 10,0 0,10 -10,0 z m 60,0 10,0 0,10 -10,0 z m 10,0 10,0 0,10 -10,0 z m 10,0 10,0 0,10 -10,0 z m 20,0 10,0 0,10 -10,0 z m 40,0 10,0 0,10 -10,0 z m -240,10 10,0 0,10 -10,0 z m 60,0 10,0 0,10 -10,0 z m 20,0 10,0 0,10 -10,0 z m 20,0 10,0 0,10 -10,0 z m 10,0 10,0 0,10 -10,0 z m 50,0 10,0 0,10 -10,0 z m 10,0 10,0 0,10 -10,0 z m 10,0 10,0 0,10 -10,0 z m 10,0 10,0 0,10 -10,0 z m 10,0 10,0 0,10 -10,0 z m 20,0 10,0 0,10 -10,0 z m 10,0 10,0 0,10 -10,0 z m 10,0 10,0 0,10 -10,0 z m -160,10 10,0 0,10 -10,0 z m 50,0 10,0 0,10 -10,0 z m 30,0 10,0 0,10 -10,0 z m 40,0 10,0 0,10 -10,0 z m 10,0 10,0 0,10 -10,0 z m 20,0 10,0 0,10 -10,0 z m -230,10 10,0 0,10 -10,0 z m 10,0 10,0 0,10 -10,0 z m 10,0 10,0 0,10 -10,0 z m 10,0 10,0 0,10 -10,0 z m 10,0 10,0 0,10 -10,0 z m 10,0 10,0 0,10 -10,0 z m 10,0 10,0 0,10 -10,0 z m 40,0 10,0 0,10 -10,0 z m 10,0 10,0 0,10 -10,0 z m 20,0 10,0 0,10 -10,0 z m 10,0 10,0 0,10 -10,0 z m 10,0 10,0 0,10 -10,0 z m 10,0 10,0 0,10 -10,0 z m 20,0 10,0 0,10 -10,0 z m 20,0 10,0 0,10 -10,0 z m 10,0 10,0 0,10 -10,0 z m 20,0 10,0 0,10 -10,0 z m 10,0 10,0 0,10 -10,0 z m -240,10 10,0 0,10 -10,0 z m 60,0 10,0 0,10 -10,0 z m 40,0 10,0 0,10 -10,0 z m 50,0 10,0 0,10 -10,0 z m 10,0 10,0 0,10 -10,0 z m 40,0 10,0 0,10 -10,0 z m 30,0 10,0 0,10 -10,0 z m 10,0 10,0 0,10 -10,0 z m -240,10 10,0 0,10 -10,0 z m 20,0 10,0 0,10 -10,0 z m 10,0 10,0 0,10 -10,0 z m 10,0 10,0 0,10 -10,0 z m 20,0 10,0 0,10 -10,0 z m 20,0 10,0 0,10 -10,0 z m 10,0 10,0 0,10 -10,0 z m 30,0 10,0 0,10 -10,0 z m 10,0 10,0 0,10 -10,0 z m 20,0 10,0 0,10 -10,0 z m 10,0 10,0 0,10 -10,0 z m 10,0 10,0 0,10 -10,0 z m 10,0 10,0 0,10 -10,0 z m 10,0 10,0 0,10 -10,0 z m 10,0 10,0 0,10 -10,0 z m 10,0 10,0 0,10 -10,0 z m 10,0 10,0 0,10 -10,0 z m -220,10 10,0 0,10 -10,0 z m 20,0 10,0 0,10 -10,0 z m 10,0 10,0 0,10 -10,0 z m 10,0 10,0 0,10 -10,0 z m 20,0 10,0 0,10 -10,0 z m 20,0 10,0 0,10 -10,0 z m 50,0 10,0 0,10 -10,0 z m 50,0 10,0 0,10 -10,0 z m 20,0 10,0 0,10 -10,0 z m 10,0 10,0 0,10 -10,0 z m 30,0 10,0 0,10 -10,0 z m -240,10 10,0 0,10 -10,0 z m 20,0 10,0 0,10 -10,0 z m 10,0 10,0 0,10 -10,0 z m 10,0 10,0 0,10 -10,0 z m 20,0 10,0 0,10 -10,0 z m 20,0 10,0 0,10 -10,0 z m 10,0 10,0 0,10 -10,0 z m 30,0 10,0 0,10 -10,0 z m 30,0 10,0 0,10 -10,0 z m 20,0 10,0 0,10 -10,0 z m 10,0 10,0 0,10 -10,0 z m 10,0 10,0 0,10 -10,0 z m 50,0 10,0 0,10 -10,0 z m -240,10 10,0 0,10 -10,0 z m 60,0 10,0 0,10 -10,0 z m 50,0 10,0 0,10 -10,0 z m 30,0 10,0 0,10 -10,0 z m 10,0 10,0 0,10 -10,0 z m 20,0 10,0 0,10 -10,0 z m 70,0 10,0 0,10 -10,0 z m -240,10 10,0 0,10 -10,0 z m 10,0 10,0 0,10 -10,0 z m 10,0 10,0 0,10 -10,0 z m 10,0 10,0 0,10 -10,0 z m 10,0 10,0 0,10 -10,0 z m 10,0 10,0 0,10 -10,0 z m 10,0 10,0 0,10 -10,0 z m 30,0 10,0 0,10 -10,0 z m 30,0 10,0 0,10 -10,0 z m 10,0 10,0 0,10 -10,0 z m 30,0 10,0 0,10 -10,0 z m 30,0 10,0 0,10 -10,0 z m 30,0 10,0 0,10 -10,0 z m 10,0 10,0 0,10 -10,0 z m 10,0 10,0 0,10 -10,0 z"
         id="path11-1-0" />
    </g>
  </g>
  <g
     inkscape:groupmode="layer"
     id="layer4"
     inkscape:label="Logo"
     style="display:inline">
    <g
       style="fill:#488aff;fill-opacity:1;stroke:#488aff;stroke-width:12.28531742;stroke-linejoin:miter;stroke-miterlimit:4;stroke-dasharray:none;stroke-opacity:1"
       id="g4273"
       transform="matrix(-0.95409082,0,0,-1,918.42067,598.28853)">
      <g
         transform="translate(190.36328,84.0098)"
         id="g4275"
         style="font-style:normal;font-weight:normal;font-size:40px;line-height:125%;font-family:sans-serif;letter-spacing:0px;word-spacing:0px;fill:#488aff;fill-opacity:1;stroke:#488aff;stroke-width:12.28531742;stroke-linecap:butt;stroke-linejoin:miter;stroke-miterlimit:4;stroke-dasharray:none;stroke-opacity:1" />
      <g
         transform="matrix(-1,0,0,1,45.22266,84.0098)"
         id="g4277"
         style="font-style:normal;font-weight:normal;font-size:40px;line-height:125%;font-family:sans-serif;letter-spacing:0px;word-spacing:0px;fill:#488aff;fill-opacity:1;stroke:#488aff;stroke-width:12.28531742;stroke-linecap:butt;stroke-linejoin:miter;stroke-miterlimit:4;stroke-dasharray:none;stroke-opacity:1" />
      <g
         style="font-style:normal;font-weight:normal;font-size:40px;line-height:125%;font-family:sans-serif;letter-spacing:0px;word-spacing:0px;fill:#488aff;fill-opacity:1;stroke:#488aff;stroke-width:12.28531742;stroke-linecap:butt;stroke-linejoin:miter;stroke-miterlimit:4;stroke-dasharray:none;stroke-opacity:1"
         id="g4279"
         transform="matrix(-1,0,0,-1,45.22266,504.73246)">
        <path
           id="path4281"
           style="font-size:175px;fill:#488aff;fill-opacity:1;stroke:#488aff;stroke-width:12.28531742;stroke-linejoin:miter;stroke-miterlimit:4;stroke-dasharray:none;stroke-opacity:1"
           d="m -588.99128,308.72268 0,-21.96289 28.75391,0 0,-13.1582 -28.75391,0 0,-39.62891 0,-6.68359 c 0,-11.96289 -2.30566,-20.22201 -6.91992,-24.7793 -4.61426,-4.50032 -12.98925,-6.75 -25.12305,-6.75 l -16.15039,0 -16.15039,0 c -12.13379,0 -20.50878,2.24968 -25.12304,6.75 -4.61426,4.55729 -6.91993,12.81641 -6.91992,24.7793 l 0,13.9707 0,13.9707 c 0,11.96289 2.30566,20.22201 6.91992,24.7793 4.61426,4.50032 12.98925,6.75 25.12304,6.75 l 4.84766,0 43.68945,0 0,21.96289 15.80664,0 z m -15.80664,-35.12109 -43.68945,0 -4.84766,0 c -6.55111,1e-5 -10.90949,-1.11035 -13.07422,-3.33203 -2.10775,-2.22168 -3.1621,-7.23471 -3.1621,-15.03907 l 0,-13.9707 0,-13.9707 c 0,-7.80436 1.05435,-12.81738 3.1621,-15.03906 2.16472,-2.22168 6.52311,-3.33205 13.07422,-3.33204 l 16.15039,0 16.15039,0 c 6.55111,-1e-5 10.90951,1.11036 13.07422,3.33204 2.10775,2.22168 3.16211,7.2347 3.16211,15.03906 l 0,13.9707 0,32.3418 z m 4.2e-4,-21.96191 0,21.96289 -28.75391,0 0,13.1582 28.75391,0 0,39.62891 0,6.68359 c 0,11.96289 2.30566,20.22201 6.91992,24.7793 4.61426,4.50032 12.98925,6.75 25.12305,6.75 l 16.15039,0 16.15039,0 c 12.13379,0 20.50878,-2.24968 25.12304,-6.75 4.61426,-4.55729 6.91993,-12.81641 6.91992,-24.7793 l 0,-13.9707 0,-13.9707 c 0,-11.96289 -2.30566,-20.22201 -6.91992,-24.7793 -4.61426,-4.50032 -12.98925,-6.75 -25.12304,-6.75 l -4.84766,0 -43.68945,0 0,-21.96289 -15.80664,0 z m 15.80664,35.12109 43.68945,0 4.84766,0 c 6.55111,-10e-6 10.90949,1.11035 13.07422,3.33203 2.10775,2.22168 3.1621,7.23471 3.1621,15.03907 l 0,13.9707 0,13.9707 c 0,7.80436 -1.05435,12.81738 -3.1621,15.03906 -2.16472,2.22168 -6.52311,3.33205 -13.07422,3.33204 l -16.15039,0 -16.15039,0 c -6.55111,1e-5 -10.90951,-1.11036 -13.07422,-3.33204 -2.10775,-2.22168 -3.16211,-7.2347 -3.16211,-15.03906 l 0,-13.9707 0,-32.3418 z"
           inkscape:connector-curvature="0" />
      </g>
    </g>
    <g
       transform="matrix(-0.95409082,0,0,-1,125.85655,500.13659)"
       id="g4288"
       style="font-style:normal;font-weight:normal;font-size:40px;line-height:125%;font-family:sans-serif;letter-spacing:0px;word-spacing:0px;fill:#ffffff;fill-opacity:1;stroke:#59c156;stroke-width:2.04755282;stroke-linecap:butt;stroke-linejoin:round;stroke-miterlimit:4;stroke-dasharray:none;stroke-opacity:1" />
    <g
       transform="matrix(0.95409082,0,0,-1,264.33389,500.13659)"
       id="g4290"
       style="font-style:normal;font-weight:normal;font-size:40px;line-height:125%;font-family:sans-serif;letter-spacing:0px;word-spacing:0px;fill:#ffffff;fill-opacity:1;stroke:#59c156;stroke-width:2.04755282;stroke-linecap:butt;stroke-linejoin:round;stroke-miterlimit:4;stroke-dasharray:none;stroke-opacity:1" />
    <path
       style="color:#000000;font-style:normal;font-variant:normal;font-weight:normal;font-stretch:normal;font-size:175px;line-height:125%;font-family:sans-serif;text-indent:0;text-align:start;text-decoration:none;text-decoration-line:none;text-decoration-style:solid;text-decoration-color:#000000;letter-spacing:0px;word-spacing:0px;text-transform:none;direction:ltr;block-progression:tb;writing-mode:lr-tb;baseline-shift:baseline;text-anchor:start;white-space:normal;clip-rule:nonzero;display:inline;overflow:visible;visibility:visible;opacity:1;isolation:auto;mix-blend-mode:normal;color-interpolation:sRGB;color-interpolation-filters:linearRGB;solid-color:#000000;solid-opacity:1;fill:#ffffff;fill-opacity:1;fill-rule:nonzero;stroke:#ffffff;stroke-width:8;stroke-linecap:butt;stroke-linejoin:round;stroke-miterlimit:4;stroke-dasharray:none;stroke-dashoffset:0;stroke-opacity:1;color-rendering:auto;image-rendering:auto;shape-rendering:auto;text-rendering:auto;enable-background:accumulate"
       d="m 301.24104,350.29839 c 3.11253,-0.76665 6.13615,-0.7332 9.08203,0 l 0,19.85937 15.94531,0 c 1.00825,1.97156 1.77844,4.04114 0,7.16016 l -15.94531,0 0,24.96094 0,10.38086 0,13.9707 c 0,8.0379 0.68644,13.61878 3.79297,17.05078 l -0.18164,-0.23242 0.22656,0.33789 0.33789,0.22656 -0.35547,-0.30273 c 3.05486,3.28611 8.07877,4.29103 14.66993,4.29102 l 14.47851,0 c 0.50667,2.30162 0.4933,4.68992 0,7.1582 l -14.47851,0 c -11.17486,0 -18.34116,-2.29518 -21.81446,-5.83789 l -0.002,-0.004 c -3.47362,-3.60125 -5.75586,-11.10388 -5.75586,-22.6875 l 0,-6.68359 0,-17.66797 0,-24.96094 -13.48828,0 c -0.77204,-2.38672 -1.05211,-4.77344 0,-7.16016 l 13.48828,0 0,-19.85937 z"
       id="path4294"
       inkscape:connector-curvature="0"
       sodipodi:nodetypes="ccccccccscccccsccsccscccccccc" />
  </g>
  <g
     inkscape:groupmode="layer"
     id="layer3"
     inkscape:label="QR Code White"
     style="display:inline;opacity:0.1;filter:url(#filter4555)">
    <g
       id="elements-1"
       transform="matrix(0.72225637,0,0,0.72225637,215.50064,283.1732)"
       style="opacity:1;filter:url(#filter4503)">
      <path
         inkscape:connector-curvature="0"
         style="fill:#000000"
         d="m 0,0 10,0 0,10 -10,0 z m 10,0 10,0 0,10 -10,0 z m 10,0 10,0 0,10 -10,0 z m 10,0 10,0 0,10 -10,0 z m 10,0 10,0 0,10 -10,0 z m 10,0 10,0 0,10 -10,0 z m 10,0 10,0 0,10 -10,0 z m 20,0 10,0 0,10 -10,0 z m 10,0 10,0 0,10 -10,0 z m 10,0 10,0 0,10 -10,0 z m 30,0 10,0 0,10 -10,0 z m 50,0 10,0 0,10 -10,0 z m 10,0 10,0 0,10 -10,0 z m 10,0 10,0 0,10 -10,0 z m 10,0 10,0 0,10 -10,0 z m 10,0 10,0 0,10 -10,0 z m 10,0 10,0 0,10 -10,0 z m 10,0 10,0 0,10 -10,0 z M 0,10 10,10 10,20 0,20 Z m 60,0 10,0 0,10 -10,0 z m 20,0 10,0 0,10 -10,0 z m 10,0 10,0 0,10 -10,0 z m 20,0 10,0 0,10 -10,0 z m 10,0 10,0 0,10 -10,0 z m 10,0 10,0 0,10 -10,0 z m 30,0 10,0 0,10 -10,0 z m 20,0 10,0 0,10 -10,0 z m 60,0 10,0 0,10 -10,0 z M 0,20 10,20 10,30 0,30 Z m 20,0 10,0 0,10 -10,0 z m 10,0 10,0 0,10 -10,0 z m 10,0 10,0 0,10 -10,0 z m 20,0 10,0 0,10 -10,0 z m 20,0 10,0 0,10 -10,0 z m 20,0 10,0 0,10 -10,0 z m 10,0 10,0 0,10 -10,0 z m 50,0 10,0 0,10 -10,0 z m 20,0 10,0 0,10 -10,0 z m 20,0 10,0 0,10 -10,0 z m 10,0 10,0 0,10 -10,0 z m 10,0 10,0 0,10 -10,0 z m 20,0 10,0 0,10 -10,0 z M 0,30 10,30 10,40 0,40 Z m 20,0 10,0 0,10 -10,0 z m 10,0 10,0 0,10 -10,0 z m 10,0 10,0 0,10 -10,0 z m 20,0 10,0 0,10 -10,0 z m 50,0 10,0 0,10 -10,0 z m 10,0 10,0 0,10 -10,0 z m 10,0 10,0 0,10 -10,0 z m 10,0 10,0 0,10 -10,0 z m 10,0 10,0 0,10 -10,0 z m 10,0 10,0 0,10 -10,0 z m 20,0 10,0 0,10 -10,0 z m 20,0 10,0 0,10 -10,0 z m 10,0 10,0 0,10 -10,0 z m 10,0 10,0 0,10 -10,0 z m 20,0 10,0 0,10 -10,0 z M 0,40 10,40 10,50 0,50 Z m 20,0 10,0 0,10 -10,0 z m 10,0 10,0 0,10 -10,0 z m 10,0 10,0 0,10 -10,0 z m 20,0 10,0 0,10 -10,0 z m 70,0 10,0 0,10 -10,0 z m 50,0 10,0 0,10 -10,0 z m 20,0 10,0 0,10 -10,0 z m 10,0 10,0 0,10 -10,0 z m 10,0 10,0 0,10 -10,0 z m 20,0 10,0 0,10 -10,0 z M 0,50 10,50 10,60 0,60 Z m 60,0 10,0 0,10 -10,0 z m 20,0 10,0 0,10 -10,0 z m 10,0 10,0 0,10 -10,0 z m 30,0 10,0 0,10 -10,0 z m 20,0 10,0 0,10 -10,0 z m 10,0 10,0 0,10 -10,0 z m 10,0 10,0 0,10 -10,0 z m 20,0 10,0 0,10 -10,0 z m 60,0 10,0 0,10 -10,0 z M 0,60 10,60 10,70 0,70 Z m 10,0 10,0 0,10 -10,0 z m 10,0 10,0 0,10 -10,0 z m 10,0 10,0 0,10 -10,0 z m 10,0 10,0 0,10 -10,0 z m 10,0 10,0 0,10 -10,0 z m 10,0 10,0 0,10 -10,0 z m 20,0 10,0 0,10 -10,0 z m 20,0 10,0 0,10 -10,0 z m 20,0 10,0 0,10 -10,0 z m 20,0 10,0 0,10 -10,0 z m 20,0 10,0 0,10 -10,0 z m 20,0 10,0 0,10 -10,0 z m 10,0 10,0 0,10 -10,0 z m 10,0 10,0 0,10 -10,0 z m 10,0 10,0 0,10 -10,0 z m 10,0 10,0 0,10 -10,0 z m 10,0 10,0 0,10 -10,0 z m 10,0 10,0 0,10 -10,0 z m -160,10 10,0 0,10 -10,0 z m 30,0 10,0 0,10 -10,0 z m 40,0 10,0 0,10 -10,0 z m -130,10 10,0 0,10 -10,0 z m 10,0 10,0 0,10 -10,0 z m 10,0 10,0 0,10 -10,0 z m 20,0 10,0 0,10 -10,0 z m 20,0 10,0 0,10 -10,0 z m 20,0 10,0 0,10 -10,0 z m 20,0 10,0 0,10 -10,0 z m 30,0 10,0 0,10 -10,0 z m 20,0 10,0 0,10 -10,0 z m 10,0 10,0 0,10 -10,0 z m 10,0 10,0 0,10 -10,0 z m 30,0 10,0 0,10 -10,0 z m 10,0 10,0 0,10 -10,0 z m 10,0 10,0 0,10 -10,0 z m -230,10 10,0 0,10 -10,0 z m 60,0 10,0 0,10 -10,0 z m 10,0 10,0 0,10 -10,0 z m 20,0 10,0 0,10 -10,0 z m 80,0 10,0 0,10 -10,0 z m 40,0 10,0 0,10 -10,0 z m -210,10 10,0 0,10 -10,0 z m 40,0 10,0 0,10 -10,0 z m 10,0 10,0 0,10 -10,0 z m 40,0 10,0 0,10 -10,0 z m 10,0 10,0 0,10 -10,0 z m 30,0 10,0 0,10 -10,0 z m 10,0 10,0 0,10 -10,0 z m 10,0 10,0 0,10 -10,0 z m 10,0 10,0 0,10 -10,0 z m 20,0 10,0 0,10 -10,0 z m 20,0 10,0 0,10 -10,0 z m 20,0 10,0 0,10 -10,0 z m 10,0 10,0 0,10 -10,0 z m -240,10 10,0 0,10 -10,0 z m 10,0 10,0 0,10 -10,0 z m 10,0 10,0 0,10 -10,0 z m 70,0 10,0 0,10 -10,0 z m 30,0 10,0 0,10 -10,0 z m 10,0 10,0 0,10 -10,0 z m 30,0 10,0 0,10 -10,0 z m 40,0 10,0 0,10 -10,0 z m 30,0 10,0 0,10 -10,0 z m 10,0 10,0 0,10 -10,0 z m -240,10 10,0 0,10 -10,0 z m 10,0 10,0 0,10 -10,0 z m 20,0 10,0 0,10 -10,0 z m 30,0 10,0 0,10 -10,0 z m 20,0 10,0 0,10 -10,0 z m 10,0 10,0 0,10 -10,0 z m 30,0 10,0 0,10 -10,0 z m 50,0 10,0 0,10 -10,0 z m 20,0 10,0 0,10 -10,0 z m 10,0 10,0 0,10 -10,0 z m 10,0 10,0 0,10 -10,0 z m 10,0 10,0 0,10 -10,0 z m 10,0 10,0 0,10 -10,0 z m 10,0 10,0 0,10 -10,0 z m -240,10 10,0 0,10 -10,0 z m 20,0 10,0 0,10 -10,0 z m 10,0 10,0 0,10 -10,0 z m 20,0 10,0 0,10 -10,0 z m 30,0 10,0 0,10 -10,0 z m 20,0 10,0 0,10 -10,0 z m 20,0 10,0 0,10 -10,0 z m 30,0 10,0 0,10 -10,0 z m 10,0 10,0 0,10 -10,0 z m 20,0 10,0 0,10 -10,0 z m 10,0 10,0 0,10 -10,0 z m -190,10 10,0 0,10 -10,0 z m 20,0 10,0 0,10 -10,0 z m 10,0 10,0 0,10 -10,0 z m 20,0 10,0 0,10 -10,0 z m 10,0 10,0 0,10 -10,0 z m 60,0 10,0 0,10 -10,0 z m 10,0 10,0 0,10 -10,0 z m 50,0 10,0 0,10 -10,0 z m 50,0 10,0 0,10 -10,0 z m 10,0 10,0 0,10 -10,0 z m -240,10 10,0 0,10 -10,0 z m 20,0 10,0 0,10 -10,0 z m 10,0 10,0 0,10 -10,0 z m 10,0 10,0 0,10 -10,0 z m 30,0 10,0 0,10 -10,0 z m 10,0 10,0 0,10 -10,0 z m 10,0 10,0 0,10 -10,0 z m 10,0 10,0 0,10 -10,0 z m 60,0 10,0 0,10 -10,0 z m 10,0 10,0 0,10 -10,0 z m 10,0 10,0 0,10 -10,0 z m 20,0 10,0 0,10 -10,0 z m 40,0 10,0 0,10 -10,0 z m -240,10 10,0 0,10 -10,0 z m 60,0 10,0 0,10 -10,0 z m 20,0 10,0 0,10 -10,0 z m 20,0 10,0 0,10 -10,0 z m 10,0 10,0 0,10 -10,0 z m 50,0 10,0 0,10 -10,0 z m 10,0 10,0 0,10 -10,0 z m 10,0 10,0 0,10 -10,0 z m 10,0 10,0 0,10 -10,0 z m 10,0 10,0 0,10 -10,0 z m 20,0 10,0 0,10 -10,0 z m 10,0 10,0 0,10 -10,0 z m 10,0 10,0 0,10 -10,0 z m -160,10 10,0 0,10 -10,0 z m 50,0 10,0 0,10 -10,0 z m 30,0 10,0 0,10 -10,0 z m 40,0 10,0 0,10 -10,0 z m 10,0 10,0 0,10 -10,0 z m 20,0 10,0 0,10 -10,0 z m -230,10 10,0 0,10 -10,0 z m 10,0 10,0 0,10 -10,0 z m 10,0 10,0 0,10 -10,0 z m 10,0 10,0 0,10 -10,0 z m 10,0 10,0 0,10 -10,0 z m 10,0 10,0 0,10 -10,0 z m 10,0 10,0 0,10 -10,0 z m 40,0 10,0 0,10 -10,0 z m 10,0 10,0 0,10 -10,0 z m 20,0 10,0 0,10 -10,0 z m 10,0 10,0 0,10 -10,0 z m 10,0 10,0 0,10 -10,0 z m 10,0 10,0 0,10 -10,0 z m 20,0 10,0 0,10 -10,0 z m 20,0 10,0 0,10 -10,0 z m 10,0 10,0 0,10 -10,0 z m 20,0 10,0 0,10 -10,0 z m 10,0 10,0 0,10 -10,0 z m -240,10 10,0 0,10 -10,0 z m 60,0 10,0 0,10 -10,0 z m 40,0 10,0 0,10 -10,0 z m 50,0 10,0 0,10 -10,0 z m 10,0 10,0 0,10 -10,0 z m 40,0 10,0 0,10 -10,0 z m 30,0 10,0 0,10 -10,0 z m 10,0 10,0 0,10 -10,0 z m -240,10 10,0 0,10 -10,0 z m 20,0 10,0 0,10 -10,0 z m 10,0 10,0 0,10 -10,0 z m 10,0 10,0 0,10 -10,0 z m 20,0 10,0 0,10 -10,0 z m 20,0 10,0 0,10 -10,0 z m 10,0 10,0 0,10 -10,0 z m 30,0 10,0 0,10 -10,0 z m 10,0 10,0 0,10 -10,0 z m 20,0 10,0 0,10 -10,0 z m 10,0 10,0 0,10 -10,0 z m 10,0 10,0 0,10 -10,0 z m 10,0 10,0 0,10 -10,0 z m 10,0 10,0 0,10 -10,0 z m 10,0 10,0 0,10 -10,0 z m 10,0 10,0 0,10 -10,0 z m 10,0 10,0 0,10 -10,0 z m -220,10 10,0 0,10 -10,0 z m 20,0 10,0 0,10 -10,0 z m 10,0 10,0 0,10 -10,0 z m 10,0 10,0 0,10 -10,0 z m 20,0 10,0 0,10 -10,0 z m 20,0 10,0 0,10 -10,0 z m 50,0 10,0 0,10 -10,0 z m 50,0 10,0 0,10 -10,0 z m 20,0 10,0 0,10 -10,0 z m 10,0 10,0 0,10 -10,0 z m 30,0 10,0 0,10 -10,0 z m -240,10 10,0 0,10 -10,0 z m 20,0 10,0 0,10 -10,0 z m 10,0 10,0 0,10 -10,0 z m 10,0 10,0 0,10 -10,0 z m 20,0 10,0 0,10 -10,0 z m 20,0 10,0 0,10 -10,0 z m 10,0 10,0 0,10 -10,0 z m 30,0 10,0 0,10 -10,0 z m 30,0 10,0 0,10 -10,0 z m 20,0 10,0 0,10 -10,0 z m 10,0 10,0 0,10 -10,0 z m 10,0 10,0 0,10 -10,0 z m 50,0 10,0 0,10 -10,0 z m -240,10 10,0 0,10 -10,0 z m 60,0 10,0 0,10 -10,0 z m 50,0 10,0 0,10 -10,0 z m 30,0 10,0 0,10 -10,0 z m 10,0 10,0 0,10 -10,0 z m 20,0 10,0 0,10 -10,0 z m 70,0 10,0 0,10 -10,0 z m -240,10 10,0 0,10 -10,0 z m 10,0 10,0 0,10 -10,0 z m 10,0 10,0 0,10 -10,0 z m 10,0 10,0 0,10 -10,0 z m 10,0 10,0 0,10 -10,0 z m 10,0 10,0 0,10 -10,0 z m 10,0 10,0 0,10 -10,0 z m 30,0 10,0 0,10 -10,0 z m 30,0 10,0 0,10 -10,0 z m 10,0 10,0 0,10 -10,0 z m 30,0 10,0 0,10 -10,0 z m 30,0 10,0 0,10 -10,0 z m 30,0 10,0 0,10 -10,0 z m 10,0 10,0 0,10 -10,0 z m 10,0 10,0 0,10 -10,0 z"
         id="path11-1" />
    </g>
  </g>
</svg>
